<svg width="665" height="487" viewBox="0 0 665 487" fill="none" xmlns="http://www.w3.org/2000/svg">
<g clip-path="url(#clip0_232_114)">
<path d="M660.06 123.68C663.041 115.003 658.307 105.536 649.629 102.643C640.952 99.5754 631.573 104.309 628.592 112.987C625.612 121.664 630.346 131.131 639.023 134.024C647.701 137.004 657.168 132.358 660.06 123.68Z" fill="#5DA5A2"/>
<path d="M646.474 106.938C645.422 104.922 641.741 104.834 638.235 106.675C634.728 108.516 632.712 111.672 633.852 113.688C634.904 115.704 638.673 115.791 642.179 113.863C645.597 112.022 647.526 108.867 646.474 106.938Z" fill="#FEFEFE"/>
<path d="M633.326 115.528C632.712 115.178 631.836 115.528 631.31 116.317C630.872 117.106 630.959 118.07 631.573 118.421C632.186 118.772 633.063 118.421 633.589 117.632C634.115 116.843 633.939 115.967 633.326 115.528Z" fill="#FEFEFE"/>
</g>
<g clip-path="url(#clip1_232_114)">
<path d="M596.873 72.5799C600.411 62.2764 594.791 51.0363 584.488 47.6019C574.184 43.9592 563.048 49.5793 559.51 59.8827C555.971 70.1862 561.591 81.4263 571.895 84.8607C582.198 88.3993 593.438 82.8833 596.873 72.5799Z" fill="#5DA5A2"/>
<path d="M580.741 52.7013C579.492 50.3076 575.121 50.2035 570.958 52.3891C566.795 54.5747 564.401 58.3214 565.754 60.7151C567.003 63.1088 571.479 63.2129 575.642 60.9232C579.7 58.7377 581.99 54.991 580.741 52.7013Z" fill="#FEFEFE"/>
<path d="M565.13 62.9006C564.401 62.4843 563.361 62.9006 562.736 63.8373C562.216 64.774 562.32 65.9188 563.048 66.3351C563.777 66.7514 564.818 66.3351 565.442 65.3984C566.067 64.4618 565.858 63.421 565.13 62.9006Z" fill="#FEFEFE"/>
</g>
<g clip-path="url(#clip2_232_114)">
<path d="M662.889 41.2161C668.472 24.9595 659.605 7.22515 643.348 1.80631C627.092 -3.94095 609.521 4.92625 603.938 21.1828C598.355 37.4393 607.222 55.1737 623.479 60.5925C639.736 66.1756 657.47 57.4726 662.889 41.2161Z" fill="#5DA5A2"/>
<path d="M637.437 9.85244C635.466 6.07567 628.569 5.91147 622.001 9.35982C615.433 12.8082 611.656 18.7196 613.791 22.4964C615.761 26.2732 622.822 26.4374 629.39 22.8248C635.795 19.3765 639.407 13.465 637.437 9.85244Z" fill="#FEFEFE"/>
<path d="M612.806 25.9448C611.656 25.288 610.014 25.9448 609.029 27.4227C608.208 28.9005 608.372 30.7068 609.521 31.3636C610.671 32.0205 612.313 31.3636 613.298 29.8858C614.283 28.4079 613.955 26.7658 612.806 25.9448Z" fill="#FEFEFE"/>
</g>
<g opacity="0.2" clip-path="url(#clip3_232_114)" filter="url(#filter0_d_232_114)">
<path d="M279.351 69.7191C278.274 69.8989 277.376 70.2585 276.478 70.4382C275.58 70.7978 274.683 71.1574 273.605 71.6967C271.989 72.5956 270.553 73.6743 269.117 75.1125C267.86 76.371 266.962 77.8092 266.064 79.607C265.346 81.0453 264.628 82.8431 264.448 84.8207C264.089 86.6185 264.089 88.4163 264.269 90.3938C264.448 92.1916 264.987 94.1692 265.705 95.967C266.423 97.7648 267.68 99.5626 268.937 101.181C269.655 102.08 270.373 102.799 271.271 103.518C272.169 104.417 273.246 104.956 274.144 105.495C275.76 106.574 277.555 107.293 279.89 108.012C281.685 108.552 283.66 108.911 285.994 109.091C287.431 109.271 288.687 109.271 290.303 109.271C293.176 109.271 296.049 109.091 298.742 108.911C300.717 108.731 302.692 108.552 304.667 108.552C305.745 108.552 306.642 108.372 307.54 108.372C307.899 108.372 308.258 108.372 308.617 108.372C309.336 108.372 310.233 108.372 310.951 108.372C312.208 108.372 313.286 108.552 314.542 108.731C316.518 108.911 318.313 109.091 320.288 109.63C323.34 110.349 326.213 111.248 328.906 112.507C330.343 113.226 331.779 113.945 333.216 114.844C334.472 115.563 335.729 116.462 336.807 117.361C338.063 118.26 339.32 119.338 340.397 120.597L340.577 120.777C340.577 120.777 340.577 120.777 340.577 120.597C340.038 118.44 339.5 115.923 338.782 113.406C338.063 111.069 337.345 108.731 336.268 106.394C334.293 101.72 331.959 97.4053 328.906 93.2703C323.52 85.8993 315.979 79.4273 307.181 74.753C302.692 72.4158 298.204 70.618 293.535 69.7191C291.022 69.1798 288.687 69 286.174 69C283.84 69 281.506 69.1798 279.351 69.7191Z" fill="#01C0B9"/>
<path d="M286.353 75.1124C285.276 75.1124 284.199 75.2922 283.122 75.6518C283.122 75.6518 283.122 75.6518 282.942 75.6518C282.403 75.6518 281.865 76.0113 281.685 76.5507C281.326 77.09 281.147 77.6293 281.326 78.1687C281.506 78.708 281.685 79.2474 282.224 79.4272C282.403 79.4272 282.583 79.6069 282.762 79.6069C283.122 79.7867 283.301 79.7867 283.66 79.7867C284.737 79.9665 285.635 80.1463 286.713 80.1463C287.79 80.3261 289.047 80.3261 290.124 80.5058C292.458 80.8654 294.792 81.225 297.126 81.7643C299.82 82.4834 302.692 83.2025 305.386 84.2812C306.822 84.8206 308.258 85.3599 309.695 86.079C310.952 86.6184 312.208 87.3375 313.465 88.0566C315.081 88.9555 316.518 89.8544 317.954 90.7533C319.39 91.6522 320.647 92.7309 321.904 93.9893C323.52 95.6074 324.956 97.2254 326.213 99.203C326.393 99.5625 326.572 99.9221 326.752 100.282C326.931 100.461 327.111 100.641 327.291 100.461C327.47 100.282 327.65 100.102 327.47 99.9221C326.572 98.3041 325.495 96.5063 324.418 95.068C323.34 93.45 321.904 91.832 320.647 90.3937C319.211 88.7757 317.595 87.3375 316.159 86.079C314.543 84.6408 312.747 83.5621 310.952 82.3036C307.181 79.9665 303.231 78.1687 299.101 76.9102C296.947 76.1911 294.792 75.8315 292.638 75.472C291.201 75.2922 289.944 75.1124 288.508 75.1124C287.79 75.1124 287.072 75.1124 286.353 75.1124ZM313.286 88.0566C313.286 88.0566 313.465 88.0566 313.465 88.2364C313.465 88.2364 313.286 88.2364 313.286 88.0566Z" fill="#FEFEFE"/>
<path d="M274.503 77.0901C273.964 77.4497 273.785 77.989 273.785 78.5284C273.605 79.607 274.503 80.8655 275.76 80.8655C276.298 80.8655 276.837 80.6857 277.376 80.3262C277.914 79.9666 278.094 79.4273 278.094 78.8879C278.273 77.8092 277.376 76.5508 276.119 76.5508C275.58 76.5508 275.042 76.7306 274.503 77.0901Z" fill="#FEFEFE"/>
<path d="M354.043 76.3708C353.684 76.5506 353.146 76.7304 352.787 76.9101C352.427 77.0899 351.889 77.4495 351.53 77.6293C349.734 78.8877 348.477 80.5057 347.4 81.944C346.502 83.2024 345.784 84.6407 345.066 86.0789C344.348 87.5172 343.989 89.315 343.45 91.2925C342.732 94.8882 342.732 98.6635 343.27 102.978C343.809 106.754 344.707 110.709 346.323 114.484C347.759 118.08 349.555 121.316 351.889 124.192C351.709 123.114 351.709 122.035 351.709 120.956C351.889 118.619 352.427 116.282 353.146 114.125C353.864 111.967 354.582 109.99 355.48 108.012C356.198 106.214 356.916 104.417 357.634 102.619C358.712 99.922 359.789 97.2253 360.866 94.5286C361.405 92.9106 361.944 91.1128 362.303 89.1352C362.662 87.1576 362.841 85.3598 362.841 83.7418C362.841 81.7642 362.303 80.1462 361.405 78.7079C360.507 77.2697 358.712 76.191 356.916 76.0112C356.557 76.0112 356.378 76.0112 356.018 76.0112C355.3 76.191 354.582 76.191 354.043 76.3708Z" fill="#01C0B9"/>
<path d="M350.272 84.2813C350.093 84.2813 349.913 84.4611 349.554 84.4611C349.375 84.6409 349.195 84.8207 349.195 85.0005C348.477 86.2589 347.938 87.6972 347.399 89.3152C347.04 90.9332 346.681 92.5512 346.502 94.1693C346.322 95.7873 346.322 97.4053 346.322 99.0233C346.322 100.641 346.502 102.259 346.502 103.877C346.502 104.057 346.861 104.237 347.04 104.237C347.22 104.237 347.399 104.057 347.399 103.698C347.399 103.338 347.399 102.799 347.399 102.439C347.399 99.0233 347.759 95.4277 348.656 92.1917C349.195 90.5737 349.913 88.9556 350.631 87.5174C350.811 87.1578 351.17 86.7983 351.35 86.4387C351.529 86.0791 351.709 85.8994 351.709 85.36C351.709 85.0005 351.529 84.6409 351.17 84.4611C350.99 84.2813 350.631 84.1016 350.272 84.1016C350.452 84.2813 350.272 84.2813 350.272 84.2813Z" fill="#FEFEFE"/>
<path d="M304.129 118.979C301.795 119.159 299.46 119.518 297.306 120.058C294.074 120.957 290.663 122.575 287.79 124.732C286.174 125.811 284.917 127.249 284.019 128.507C282.942 129.946 282.224 131.743 282.044 133.361C281.865 135.159 282.403 136.957 283.301 138.755C283.84 139.654 284.378 140.373 284.917 140.912C285.276 141.272 285.635 141.452 285.994 141.811C286.353 142.171 286.892 142.35 287.251 142.53C287.79 142.89 288.508 143.07 289.406 143.249C289.765 143.249 290.303 143.429 290.663 143.429C291.022 143.429 291.56 143.429 291.919 143.429C292.817 143.429 293.535 143.07 294.074 143.07C294.972 142.89 295.869 142.53 296.767 142.171C299.819 140.912 302.513 138.935 305.206 137.137L305.924 136.597L306.822 135.878C307.361 135.519 308.079 134.979 308.617 134.62C310.413 133.541 312.388 132.642 314.722 131.923H314.902C315.261 131.923 315.44 131.743 315.799 131.743C316.518 131.564 317.236 131.384 317.774 131.204C319.749 130.844 321.724 130.665 323.879 130.665C324.059 130.665 324.238 130.665 324.418 130.665C326.572 130.665 328.727 131.024 330.702 131.564C331.779 131.923 332.677 132.283 333.575 132.822C333.934 133.002 334.293 133.182 334.652 133.361C333.754 131.564 332.497 129.766 330.702 128.148C329.086 126.71 327.29 125.271 324.956 124.013C321.006 121.676 316.158 120.237 311.131 119.518C309.515 119.339 307.899 119.159 306.283 119.159C305.924 118.979 305.026 118.979 304.129 118.979Z" fill="#01C0B9"/>
<path d="M300.717 122.934C298.562 123.294 296.408 124.193 294.253 125.091C293.176 125.631 292.098 126.17 291.021 126.709C289.944 127.249 289.046 127.968 288.148 128.507C287.251 129.047 287.071 130.305 287.61 131.204C288.328 132.283 289.944 132.462 290.662 131.384C291.021 130.844 291.56 130.485 291.919 129.946C292.098 129.766 292.278 129.766 292.278 129.586C292.996 128.867 293.714 128.327 294.612 127.788C295.33 127.249 296.228 126.889 296.946 126.35C298.024 125.811 299.101 125.451 300.178 124.912C301.435 124.552 302.512 124.013 303.769 123.833C303.769 123.833 303.769 123.833 303.59 123.833C305.744 123.473 307.719 123.294 309.874 123.294C309.874 123.294 309.874 123.294 310.053 123.294C311.31 123.294 312.567 123.473 313.824 123.833C314.003 123.833 314.363 123.653 314.363 123.473C314.363 123.294 314.183 122.934 314.003 122.934C311.849 122.395 309.694 122.215 307.54 122.215C307.36 122.215 307.36 122.215 307.181 122.215C305.206 122.395 302.871 122.575 300.717 122.934ZM292.817 129.406L292.637 129.586C292.637 129.586 292.637 129.406 292.817 129.406Z" fill="#FEFEFE"/>
<path d="M462.311 89.8545C455.129 90.7534 447.947 92.0119 440.226 93.8097C426.221 97.0457 411.858 101.72 397.314 107.833C390.312 110.709 383.668 113.945 377.384 117.361C370.92 120.777 364.277 124.552 357.275 129.226C345.245 136.957 333.215 146.126 320.647 157.092C315.081 161.946 309.515 166.98 303.59 172.913C298.742 177.587 293.715 182.801 287.071 189.812C283.121 193.947 279.351 198.082 275.58 202.217C269.655 208.689 263.73 215.161 257.446 221.633C245.955 233.499 235.9 242.847 225.666 250.758L225.486 250.938L225.306 251.117C208.07 264.421 192.808 273.59 177.546 280.242H177.726C172.519 282.399 167.312 284.197 162.105 285.815C156.719 287.433 150.973 288.512 145.048 289.411C140.2 289.95 135.532 290.309 130.684 290.309H130.325C125.836 290.309 121.168 289.95 116.141 289.411C114.166 289.231 112.37 288.871 110.395 288.512C113.088 284.556 115.602 280.601 117.936 276.646C120.27 272.331 122.425 267.657 124.22 261.904C127.632 251.657 129.427 241.05 129.248 230.622C129.248 225.948 128.889 221.094 128.171 216.42C127.811 214.442 127.452 212.285 127.093 210.307C125.836 203.116 124.4 197.363 122.605 192.149C121.527 188.734 120.27 186.217 119.014 183.88C117.936 182.082 116.32 179.565 113.986 177.947C112.909 177.228 111.832 176.688 110.575 176.509C110.216 176.329 109.677 176.329 109.138 176.329C108.42 176.329 107.702 176.509 106.984 176.688C106.086 176.868 105.188 177.407 104.111 178.306C103.034 179.205 102.136 180.284 101.238 181.183C99.0836 183.7 97.2881 186.756 96.0313 189.273C94.5949 191.97 92.979 195.026 91.363 198.801C90.2857 201.318 89.2084 203.835 87.772 207.431L87.5925 208.15C86.8743 209.948 85.9766 211.925 85.2584 213.723C81.6674 223.251 79.6924 232.78 79.3333 242.308C78.9742 252.376 80.7696 261.904 84.3606 270.713C80.0514 266.039 75.5627 261.365 70.5354 256.691C66.9444 253.275 63.1739 250.039 59.4033 246.623C54.9146 242.668 51.5032 239.971 48.2713 237.454C43.9621 234.218 39.8325 231.521 35.7029 229.364C31.2142 227.027 26.7255 225.409 22.4163 224.69C20.6208 224.33 18.8253 224.15 16.8503 224.15C16.4912 224.15 16.1321 224.15 15.773 224.15C13.9775 224.15 12.3616 224.51 10.7456 225.049C8.23194 225.948 6.2569 227.926 5.35916 230.263C4.64096 232.42 4.64096 234.937 5.17961 238.353C5.71825 241.589 6.79555 244.645 7.87284 247.522C8.23194 248.421 8.59104 249.499 8.95013 250.398L9.48878 252.016C9.84788 252.735 10.0274 253.634 10.3865 254.353C10.7456 255.252 11.1047 256.151 11.2843 257.05C12.7207 261.005 14.5161 264.96 16.4912 268.556C18.4662 272.152 20.8004 275.388 23.1345 278.444C25.4686 281.32 28.1619 284.017 31.0346 286.534C36.2415 291.029 42.5258 294.804 49.7077 297.86C56.1715 300.557 63.3534 302.534 71.6126 304.153C78.7946 305.411 86.3357 306.13 95.4926 306.669C95.8517 306.669 96.3904 306.669 96.7495 306.669H96.929C105.547 321.052 113.627 333.636 121.707 344.963C131.043 357.907 141.098 370.132 151.332 381.098C160.848 391.346 171.621 401.234 182.933 410.582C191.551 417.594 200.529 424.246 209.865 430.358C212.02 431.257 214.174 431.976 216.329 432.875C224.588 435.752 232.847 438.269 241.286 440.246C249.725 442.224 258.164 443.482 266.782 444.381C266.603 444.381 266.603 444.381 266.423 444.381C273.964 445.1 281.685 445.28 289.405 444.92C296.587 444.561 303.949 443.842 310.951 442.583C317.415 441.505 323.699 439.887 329.804 437.909C335.908 435.931 342.013 433.594 347.759 430.718C353.504 427.841 359.25 424.785 364.636 421.189C370.202 417.594 375.409 413.459 380.437 409.144C386.9 403.571 392.825 397.638 398.571 391.346C406.651 382.537 414.012 373.368 421.374 364.019C428.735 354.671 435.917 345.322 443.638 336.333C451.179 327.344 459.258 318.535 468.056 310.625C472.365 306.849 476.675 303.074 481.343 299.658C486.011 296.242 491.039 293.006 496.066 289.95C516.355 278.084 538.799 270.174 561.96 266.578C570.938 265.14 580.095 264.421 589.072 264.421C591.765 264.421 594.279 264.421 596.972 264.601C603.616 264.96 610.259 265.32 616.902 266.039C620.314 266.399 623.546 266.938 626.957 267.477C626.777 260.466 626.059 253.275 624.623 245.185C623.366 237.814 621.571 230.263 619.057 222.173C614.927 208.509 608.823 194.307 600.743 178.666C597.511 172.374 593.74 165.722 589.79 158.89C586.379 153.317 582.788 147.744 579.197 142.53C571.476 131.384 563.397 122.395 554.778 114.844C550.29 110.889 545.621 107.293 540.414 104.057C535.567 101.001 530.001 98.3042 524.076 95.7872C512.584 91.113 499.118 88.7758 484.216 88.4163C483.318 88.4163 482.42 88.4163 481.522 88.4163C475.777 88.7758 469.313 89.1354 462.311 89.8545Z" fill="#5DD2CE"/>
<path d="M586.02 256.87C584.224 256.87 582.249 256.87 580.095 257.05C577.402 257.23 574.708 257.41 572.015 257.589C563.756 258.488 555.676 259.927 547.596 262.084C543.287 263.163 539.337 264.421 535.567 265.68C531.617 266.938 527.667 268.376 523.716 269.994C513.841 273.77 504.325 278.264 495.168 283.478C490.5 286.175 486.191 288.691 482.241 291.208C478.291 293.725 474.52 296.422 470.929 298.939C467.697 301.456 464.824 303.613 462.131 305.95C458.899 308.647 456.027 311.524 453.333 314.4C450.461 317.277 447.767 320.333 445.254 323.389C442.56 326.445 440.047 329.502 437.533 332.738C435.019 335.794 432.685 338.85 430.351 342.266L426.581 347.3L424.965 349.457C422.99 352.154 421.015 354.851 418.86 357.547C415.628 361.862 411.678 367.076 407.548 372.109C403.419 376.964 399.469 381.638 395.339 385.953C390.85 390.627 386.541 394.762 382.232 398.717C377.564 403.032 372.896 406.807 368.227 410.223C363.2 413.998 358.532 417.234 353.863 420.111C348.477 423.347 343.09 426.223 337.883 428.74C332.317 431.257 326.751 433.594 321.545 435.212C318.313 436.291 315.26 437.19 312.388 437.909C309.335 438.628 306.283 439.347 303.41 439.887C296.587 441.145 290.303 442.044 284.378 442.583C280.069 442.943 275.76 443.123 271.63 443.123C269.116 443.123 267.141 443.123 265.346 442.943C259.062 442.583 253.136 442.044 247.57 440.965C241.286 439.887 235.361 438.448 229.436 436.651C223.511 434.853 217.765 432.695 212.199 430.178C208.788 428.74 205.376 426.942 201.786 425.324C206.274 428.56 211.302 431.976 216.688 435.392C239.85 449.775 264.628 460.921 290.303 468.292C313.824 475.124 338.243 478.539 362.661 478.539C364.816 478.539 366.791 478.539 368.945 478.539C395.698 477.82 422.631 472.786 448.665 463.438C461.233 458.943 473.981 453.19 486.909 446.179C497.682 440.246 508.455 433.954 518.869 427.122C529.821 419.931 540.594 412.2 550.649 403.931C561.422 395.301 571.297 386.132 580.095 376.604C589.431 366.716 597.511 356.469 604.334 345.862C611.336 334.895 616.902 323.569 620.852 311.883C623.007 305.771 624.623 299.119 625.7 292.107C626.957 284.736 627.496 277.006 627.316 268.916C627.316 267.837 627.316 266.758 627.137 265.68C626.598 265.5 626.239 265.32 625.88 265.14C622.109 263.522 618.518 262.264 615.107 261.365C613.132 260.826 611.157 260.286 609.541 259.927C607.566 259.567 605.77 259.208 603.795 258.848C598.409 258.129 593.202 257.589 588.174 257.589C587.456 256.87 586.738 256.87 586.02 256.87Z" fill="#EBFAF8"/>
<path d="M583.686 257.05C582.07 268.197 579.556 279.343 576.145 289.95C567.706 316.558 554.778 341.727 538.978 364.739C524.255 385.953 506.839 405.369 487.268 422.268C467.697 439.168 445.972 453.73 422.271 464.157C410.601 469.371 398.571 473.506 386.182 476.382C385.105 476.562 384.027 476.922 382.95 477.101C405.214 475.303 427.119 470.449 448.665 462.719C455.847 460.202 463.208 457.146 470.57 453.73C486.011 445.46 500.555 435.572 514.2 424.246L513.841 424.426C517.971 421.01 521.921 417.414 525.871 413.819C542.21 398.537 556.933 381.458 569.681 363.121C569.681 363.3 569.501 363.3 569.501 363.48C571.835 360.244 573.99 356.828 576.145 353.592C587.815 335.434 597.69 316.198 605.231 295.883C607.206 290.489 608.822 285.096 610.079 279.523C611.336 274.129 612.234 268.556 612.772 262.983C612.772 262.084 612.952 261.365 612.952 260.466C611.695 260.107 610.438 259.927 609.361 259.567C607.386 259.208 605.591 258.848 603.615 258.489C598.409 257.769 593.202 257.23 587.815 257.23C587.097 257.23 586.379 257.23 585.661 257.23C585.302 257.05 584.404 257.05 583.686 257.05Z" fill="#A8EEE4"/>
<path d="M614.209 273.77C613.132 279.882 611.516 285.995 609.541 291.927C607.746 297.141 605.771 302.355 603.616 307.568C601.641 312.422 599.307 317.276 596.973 322.13C587.277 341.906 575.606 360.783 561.961 378.222C548.315 395.84 532.694 412.2 515.457 426.583C511.507 429.819 507.378 433.055 503.248 436.111C508.455 433.055 513.662 429.819 518.689 426.403C529.642 419.212 540.415 411.481 550.469 403.211C561.242 394.582 571.118 385.413 579.916 375.885C589.073 365.997 597.332 355.749 604.155 345.322C611.157 334.355 616.723 323.029 620.673 311.344C622.828 305.231 624.444 298.579 625.521 291.568C626.778 284.197 627.316 276.466 627.137 268.376C627.137 267.297 627.137 266.219 626.957 265.14C626.598 264.96 626.06 264.78 625.7 264.601H625.88C622.469 263.162 619.057 261.904 615.646 260.825C615.466 265.32 614.927 269.455 614.209 273.77Z" fill="#A8EEE4"/>
<path d="M580.095 257.05C577.402 257.23 574.708 257.41 572.015 257.589C563.756 258.488 555.676 259.927 547.597 262.084C543.467 263.163 539.517 264.241 535.567 265.68C534.49 266.039 533.412 266.399 532.335 266.758C531.617 271.792 530.719 276.826 529.642 281.86C527.128 293.186 523.896 304.512 519.767 315.479C514.56 329.142 508.096 342.446 500.375 355.03C493.912 365.817 486.55 376.065 478.47 385.773C462.491 405.009 443.817 421.909 422.99 435.572C402.342 449.055 379.539 459.303 355.659 465.236C343.629 468.292 331.24 470.09 319.031 470.809C313.824 471.168 308.617 471.168 303.59 470.989C321.365 475.124 339.5 477.461 357.814 477.82C363.38 477.461 368.946 476.921 374.512 476.022C391.389 473.146 407.908 467.932 423.528 460.741C423.528 460.741 423.528 460.741 423.708 460.741C423.708 460.741 423.708 460.741 423.528 460.741C444.536 451.213 463.927 438.448 481.702 423.706H481.523C482.6 422.808 483.498 421.909 484.575 421.01C504.146 404.11 521.562 384.874 536.465 363.66C536.465 363.66 536.465 363.66 536.465 363.84C550.29 344.064 561.781 322.85 570.04 300.197C575.247 286.175 579.018 271.612 581.172 256.87C580.634 257.05 580.454 257.05 580.095 257.05ZM481.343 423.886C481.164 423.886 481.343 423.886 481.343 423.886C481.164 423.886 481.343 423.886 481.343 423.886ZM423.708 460.561C423.528 460.741 423.708 460.741 423.708 460.561C423.528 460.741 423.708 460.741 423.708 460.561Z" fill="#A8EEE4"/>
<path d="M523.717 269.815C514.021 273.59 504.325 278.085 495.168 283.298C492.834 284.557 490.321 285.995 487.986 287.433C487.986 287.613 487.986 287.613 487.986 287.793C484.395 301.636 479.189 314.939 472.904 327.704C466.441 340.648 458.9 353.053 450.461 364.918C442.022 376.604 432.865 387.571 422.631 397.638C417.603 402.492 412.576 407.346 407.19 411.841C401.803 416.335 396.237 420.47 390.491 424.426C379.18 431.976 366.971 438.269 354.223 443.123C341.654 447.977 328.547 451.393 315.261 453.37C301.794 455.348 288.149 455.887 274.683 454.808C267.86 454.269 261.037 453.37 254.214 452.112C250.982 451.572 247.93 450.853 244.698 450.134C259.421 457.325 274.862 463.078 290.483 467.753C306.642 469.191 322.981 468.472 339.141 465.955C357.275 462.899 375.05 457.505 391.928 449.775C391.748 449.775 391.748 449.954 391.569 449.954C410.421 441.325 428.197 429.999 444.177 416.695C444.177 416.695 444.177 416.695 443.997 416.875C461.234 402.492 476.316 385.773 489.243 367.435C489.243 367.435 489.243 367.435 489.243 367.255C489.243 367.255 489.243 367.076 489.423 367.076C494.989 358.986 500.196 350.536 504.864 341.906C509.891 332.378 514.38 322.49 518.151 312.423L518.33 312.063C518.33 312.063 518.33 312.063 518.33 312.243C521.742 303.074 524.435 293.725 526.589 284.377C527.846 278.983 528.924 273.41 529.642 267.837C527.487 268.376 525.512 269.095 523.717 269.815Z" fill="#A8EEE4"/>
<path d="M482.061 291.028C478.291 293.545 474.52 296.062 470.75 298.759C470.75 298.759 470.75 298.759 470.929 298.759C467.877 301.096 465.004 303.433 462.131 305.77C459.079 308.467 456.027 311.164 453.333 314.22C450.461 317.096 447.767 320.153 445.254 323.209C442.56 326.265 440.047 329.322 437.533 332.558C435.019 335.614 432.685 338.85 430.351 342.086C426.581 347.12 422.81 352.154 419.04 357.187C415.269 362.042 411.678 366.896 407.728 371.75C403.778 376.424 399.828 381.098 395.519 385.593C391.389 389.907 387.08 394.222 382.412 398.357C377.923 402.492 373.255 406.267 368.407 409.863C363.739 413.279 358.891 416.695 353.863 419.751C348.656 422.807 343.45 425.863 337.883 428.38C332.677 430.897 327.111 433.055 321.545 434.853C318.492 435.931 315.44 436.83 312.388 437.549C309.335 438.268 306.462 438.987 303.41 439.527C297.126 440.785 290.842 441.684 284.378 442.224C278.094 442.763 271.81 442.943 265.346 442.583C259.421 442.224 253.496 441.684 247.57 440.605C241.466 439.527 235.361 438.089 229.436 436.291C223.511 434.493 217.765 432.336 212.199 429.819C208.608 428.201 205.197 426.583 201.786 424.965C206.633 428.38 211.661 431.796 216.688 434.853C222.254 438.268 227.82 441.504 233.566 444.561C233.745 444.561 233.925 444.561 234.104 444.561C245.955 448.156 258.164 450.493 270.553 451.752C270.373 451.752 270.373 451.752 270.194 451.752C285.814 453.19 301.615 452.831 317.056 450.314C332.856 447.617 348.297 442.943 363.02 436.291C378.282 429.279 392.646 420.29 405.573 409.503C405.573 409.503 405.573 409.504 405.394 409.683C414.012 402.492 422.092 394.582 429.453 386.312C436.994 377.862 443.997 369.053 450.64 359.884C462.49 342.985 472.366 324.827 479.547 305.411C481.522 300.197 483.138 294.983 484.575 289.59C483.677 289.95 482.959 290.489 482.061 291.028ZM363.379 436.111C363.379 436.111 363.2 436.111 363.2 436.291C363.2 436.111 363.379 436.111 363.379 436.111Z" fill="#A8EEE4"/>
<path d="M206.274 427.841C205.915 427.482 205.377 427.302 205.018 426.942C208.788 429.639 212.738 432.156 216.868 434.853C222.434 438.269 228.179 441.684 233.745 444.561H233.925C234.104 444.561 234.104 444.561 234.284 444.561C243.441 447.258 252.957 449.415 262.653 450.853C265.346 451.213 268.039 451.572 270.732 451.752H270.553H270.732C276.478 452.291 282.403 452.651 288.328 452.651C298.203 452.651 307.899 451.932 317.595 450.314C330.522 448.157 343.091 444.741 355.3 439.887C342.732 439.347 330.163 438.089 317.774 436.111C316.517 436.471 315.261 436.83 314.004 437.19C313.645 437.37 313.106 437.37 312.747 437.549C309.695 438.269 306.642 438.988 303.769 439.527C296.947 440.786 290.662 441.684 284.737 442.224C280.249 442.583 275.939 442.763 271.989 442.763C269.655 442.763 267.68 442.763 265.705 442.583C259.421 442.224 253.496 441.684 247.93 440.606C244.159 439.887 240.568 439.167 236.977 438.269C234.464 437.729 232.129 437.01 229.795 436.291C228.538 435.931 227.282 435.572 226.025 435.033C222.613 433.954 219.381 432.695 216.15 431.257C214.893 430.718 213.815 430.358 212.559 429.819C210.763 429.1 208.968 428.201 207.172 427.302C205.556 426.583 203.94 425.684 202.324 424.965C203.581 425.864 205.018 426.942 206.274 427.841Z" fill="#91EEE2"/>
<path d="M367.509 439.887C365.534 439.887 363.559 439.887 361.584 439.887C359.25 440.965 356.736 442.044 354.222 442.943C341.654 447.797 328.547 451.213 315.26 453.19C306.283 454.449 297.305 455.168 288.328 455.168C283.839 455.168 279.35 454.988 274.682 454.629C267.859 454.089 260.857 453.19 254.214 451.932L253.136 451.752C250.802 451.393 248.468 450.853 246.313 450.314C245.954 450.134 245.416 450.134 245.057 449.954C257.086 455.887 269.834 460.921 282.582 465.056C285.276 465.955 287.969 466.674 290.662 467.573C296.228 468.112 301.974 468.292 307.719 468.292C318.313 468.292 328.906 467.393 339.32 465.775C357.275 462.899 375.05 457.325 392.107 449.595C400.725 445.64 409.344 440.965 417.783 435.752C400.905 438.628 384.207 440.066 367.509 439.887Z" fill="#91EEE2"/>
<path d="M467.159 423.347C459.797 425.684 452.436 428.021 445.074 429.819C438.251 431.617 431.249 433.235 424.247 434.493L422.99 435.212C401.623 449.235 379 459.123 355.659 464.876C343.45 467.932 331.061 469.73 319.031 470.449C315.26 470.629 311.49 470.809 307.899 470.809C306.642 470.809 305.385 470.809 304.128 470.809C303.949 470.809 303.769 470.809 303.59 470.809C321.186 474.944 339.5 477.281 357.634 477.64C363.02 477.281 368.766 476.741 374.332 475.843C390.671 473.146 407.189 467.932 423.349 460.561C443.279 451.392 462.85 438.988 481.343 423.527C482.241 422.807 483.318 421.909 484.395 421.01C487.268 418.493 490.141 415.976 493.014 413.279C484.575 417.054 475.957 420.47 467.159 423.347Z" fill="#91EEE2"/>
<path d="M545.263 384.334C533.413 392.604 521.024 400.155 508.096 406.627C505.583 407.886 503.069 409.144 500.376 410.223C500.376 410.223 500.376 410.223 500.555 410.223C496.246 414.538 491.757 418.493 487.448 422.268C466.8 440.066 444.895 454.269 422.451 464.157C410.242 469.55 398.212 473.685 386.362 476.382L385.644 476.562C384.926 476.741 384.028 476.921 383.31 477.101C384.208 477.101 385.105 476.921 386.183 476.921C390.492 476.562 394.621 476.022 398.751 475.483H399.11C415.808 473.146 432.506 468.831 449.025 462.898C456.207 460.382 463.568 457.325 470.93 453.909C482.6 447.797 494.271 440.246 505.583 431.617C508.455 429.28 511.508 426.942 514.38 424.605L514.201 424.785C517.971 421.729 522.101 418.133 526.231 414.358C541.133 400.515 554.958 384.874 567.168 367.795C559.986 373.368 552.624 378.941 545.263 384.334Z" fill="#91EEE2"/>
<path d="M605.95 325.187C597.331 336.513 587.995 347.299 577.761 357.187C577.042 357.907 576.324 358.626 575.606 359.165C575.606 359.165 575.606 359.165 575.606 359.345C575.606 359.345 575.606 359.345 575.786 359.165C571.476 365.637 566.988 371.929 562.319 377.862C548.315 396.02 532.694 412.2 515.816 426.223C512.584 428.92 509.173 431.616 505.941 433.954C505.223 434.493 504.505 435.032 503.786 435.572C508.634 432.695 513.662 429.639 519.048 426.043C530.001 418.852 540.774 411.121 550.828 402.852C561.601 394.222 571.476 385.053 580.274 375.525C589.611 365.637 597.691 355.39 604.513 344.962C611.516 333.996 617.082 322.67 621.032 310.984L621.391 310.085L621.75 309.006C623.007 305.231 624.084 301.096 624.982 296.781C619.057 306.849 612.773 316.377 605.95 325.187Z" fill="#91EEE2"/>
<path d="M5.53909 230.622C4.82089 232.78 4.82089 235.297 5.35954 238.713C5.89819 241.949 6.97548 245.185 8.05277 247.881C8.41187 248.78 8.59142 249.499 8.95052 250.398L9.13006 250.758L9.66871 252.376C9.84826 252.915 10.0278 253.455 10.2074 254.174L10.3869 254.713C10.746 255.612 11.1051 256.511 11.2846 257.41C12.721 261.365 14.5165 265.32 16.6711 268.916C18.6461 272.331 20.8007 275.747 23.3144 278.804C25.6486 281.68 28.3418 284.377 31.2146 286.894C36.4215 291.388 42.7057 295.164 49.8876 298.22C56.3514 300.917 63.5333 302.894 71.7926 304.512C78.9745 305.771 86.5156 306.49 95.6726 307.029C96.0317 307.029 96.5703 307.029 96.9294 307.029H97.109C105.727 321.411 113.807 333.816 121.887 345.322C131.223 358.266 141.278 370.491 151.512 381.458C161.208 391.706 171.801 401.593 183.113 410.942C189.038 415.796 195.322 420.65 201.786 425.145C205.377 426.942 208.968 428.56 212.2 429.999C217.766 432.336 223.511 434.493 229.436 436.471C235.182 438.269 241.287 439.707 247.571 440.786C253.137 441.684 259.242 442.404 265.346 442.763C267.321 442.943 269.296 442.943 271.63 442.943C275.58 442.943 279.89 442.763 284.378 442.404C290.303 441.864 296.408 441.145 303.41 439.707C306.283 439.168 309.336 438.448 312.388 437.729C314.004 437.37 315.62 436.83 317.415 436.291C316.697 436.111 315.979 436.111 315.081 435.931C297.665 432.875 280.428 428.56 263.551 422.808C246.853 417.055 230.693 410.223 215.073 401.953C207.172 397.818 199.272 393.324 191.731 388.649C184.011 383.795 176.649 378.941 169.288 373.548C162.285 368.334 155.283 362.761 148.819 356.828C142.355 350.895 136.071 344.603 130.146 337.951C124.221 331.299 118.475 324.288 113.089 317.277C111.473 315.299 110.036 313.142 108.6 311.164C107.523 309.726 106.446 308.108 105.368 306.669C103.932 304.692 102.316 302.714 100.341 301.096C99.8022 300.737 99.2635 300.197 98.5453 299.838C98.0067 299.478 97.2885 299.119 96.7499 298.939C94.4157 298.04 91.902 297.321 89.3884 296.961C86.6951 296.422 84.0019 295.883 81.3087 295.343C76.1018 294.085 70.8948 292.826 65.8675 291.029C60.6606 289.231 55.4536 287.253 50.4263 284.916C45.5785 282.579 40.9102 280.062 36.4215 277.006C31.9328 273.949 27.8031 270.534 24.0326 266.758C20.6212 263.163 17.3893 259.208 14.6961 254.893C12.1824 249.499 10.0278 244.645 8.59142 239.432C7.87322 236.735 7.33458 234.038 6.97548 231.342C6.79593 230.443 6.79593 229.544 6.61638 228.645C6.25728 229.184 5.89819 229.724 5.53909 230.622Z" fill="#4ABBB6"/>
<path d="M100.34 300.556C100.162 300.377 100.34 300.377 100.34 300.556C100.162 300.377 100.34 300.377 100.34 300.556Z" fill="#4ABBB6"/>
<path d="M322.981 336.333C321.545 336.333 319.929 336.513 318.492 336.693C315.979 337.052 313.645 337.771 311.49 338.67C310.413 339.209 309.515 339.749 308.258 340.468C307.181 341.187 306.283 342.086 305.385 342.985C305.026 343.344 305.026 343.884 305.026 344.243C303.949 345.861 302.872 347.3 301.794 348.378C298.563 351.974 294.972 355.39 291.56 358.626L289.406 360.783C284.737 365.278 280.249 369.592 276.298 374.446C273.426 377.862 270.014 382.716 269.117 387.93C268.757 390.087 268.937 392.424 269.835 394.402C270.732 396.38 272.348 398.357 274.683 399.975C275.939 400.874 277.555 401.773 278.812 402.312C280.249 403.031 281.864 403.751 283.84 404.29C288.149 405.728 292.817 406.627 297.665 406.987C299.46 407.166 301.256 407.166 303.051 407.166C305.924 407.166 308.976 406.987 312.029 406.627C316.697 406.088 321.365 405.009 326.033 403.571C335.37 400.694 343.988 396.2 351.35 390.447C355.3 387.391 358.711 383.975 361.045 380.199C363.739 376.064 365.175 371.75 365.355 367.435C365.534 362.94 364.098 358.446 361.225 354.491C359.609 352.154 357.455 349.996 354.402 347.659C351.709 345.682 348.657 343.704 344.886 341.906C341.475 340.288 337.884 338.85 334.113 337.951C330.522 336.872 326.752 336.333 322.981 336.333Z" fill="#5DD2CE"/>
<path d="M357.454 383.615C353.684 385.952 349.554 387.93 345.245 389.548C343.091 390.447 340.756 391.166 338.602 391.885C335.909 392.604 333.395 393.503 330.702 394.043C325.495 395.301 320.108 396.38 314.722 397.099C309.335 397.638 303.949 397.818 298.562 397.279C297.126 397.099 295.69 396.919 294.253 396.739C292.996 396.559 291.919 396.38 290.662 396.02C289.226 395.661 287.789 395.301 286.533 394.762C284.917 394.222 283.301 393.503 281.864 392.784C280.428 392.065 278.812 391.166 277.555 390.087C276.298 389.188 275.042 388.11 273.964 386.851C273.426 386.312 272.887 385.593 272.528 384.874C272.169 384.334 271.81 383.615 271.63 382.896C271.451 382.537 271.451 382.177 271.271 381.817C270.373 383.615 269.655 385.593 269.296 387.75C268.937 389.908 269.116 392.065 270.014 394.222C270.912 396.2 272.528 398.177 274.862 399.796C276.119 400.694 277.735 401.593 278.992 402.133C280.428 402.852 282.044 403.571 284.019 404.11C288.328 405.548 292.996 406.447 297.844 406.807C299.64 406.987 301.435 406.987 303.231 406.987C306.103 406.987 309.156 406.807 312.208 406.447C316.876 405.908 321.545 404.829 326.213 403.391C335.549 400.515 344.168 396.02 351.529 390.267C355.12 387.57 358.173 384.334 360.507 381.098C359.609 382.177 358.532 382.896 357.454 383.615Z" fill="#4ABBB6"/>
<path d="M303.051 346.041C301.794 347.659 300.358 349.277 298.921 350.715C297.485 352.333 295.869 353.772 294.253 355.21C291.021 358.266 287.61 361.143 284.378 364.019C281.146 367.075 277.914 370.132 275.221 373.547C273.964 375.165 272.707 376.963 271.63 378.761C271.091 379.66 270.553 380.559 270.194 381.458C269.655 382.536 269.116 383.615 268.757 384.694C268.398 385.772 268.219 386.671 268.039 387.75C267.859 388.829 268.039 389.907 268.039 390.806C268.219 391.705 268.398 392.604 268.757 393.503C269.116 394.402 269.475 395.121 270.014 396.02C272.169 399.436 275.58 401.773 278.992 403.571C283.301 405.728 287.789 406.807 292.458 407.706C295.151 408.245 298.024 408.425 300.896 408.425C303.769 408.425 306.462 408.245 309.335 408.065C312.028 407.706 314.722 407.346 317.235 406.807C319.929 406.267 322.622 405.548 325.136 404.829C329.624 403.391 334.113 401.773 338.422 399.615C342.731 397.638 346.681 395.121 350.452 392.245C354.402 389.368 357.993 386.132 361.225 382.357C361.404 382.177 361.404 381.997 361.225 381.637C361.045 381.458 360.686 381.458 360.507 381.637C357.634 384.874 354.582 387.75 350.991 390.267C345.425 394.042 339.32 397.099 333.036 399.436C333.036 399.436 333.036 399.436 333.215 399.436H333.036H332.856C332.856 399.436 332.856 399.436 333.036 399.436C329.624 400.694 326.213 401.773 322.622 402.672C318.313 403.75 314.183 404.649 309.694 405.189C307.181 405.368 304.487 405.548 301.974 405.368C299.46 405.368 296.767 405.009 294.253 404.649H294.433H294.253H294.074C294.074 404.649 294.074 404.649 294.253 404.649C291.739 404.29 289.226 403.571 286.712 402.852C285.096 402.312 283.301 401.773 281.685 401.054C279.53 400.155 277.555 398.896 275.76 397.458C274.682 396.559 273.785 395.66 272.887 394.582C272.348 393.863 271.989 392.964 271.63 392.065C271.45 391.346 271.271 390.626 271.091 389.728C271.091 388.829 271.091 388.11 271.091 387.211C271.271 385.772 271.81 384.514 272.348 383.076C273.785 380.019 275.58 377.143 277.735 374.626C281.864 369.772 286.533 365.637 291.201 361.322C293.535 359.165 295.869 357.008 298.024 354.67C300.178 352.333 302.333 349.996 304.128 347.479C304.487 347.12 304.308 346.58 303.949 346.221C303.769 346.041 303.41 345.861 303.231 345.861C303.41 345.681 303.051 345.861 303.051 346.041ZM278.273 374.626L278.094 374.806L278.273 374.626ZM272.887 383.076C272.707 383.076 272.707 383.255 272.887 383.076C272.707 383.076 272.707 383.255 272.887 383.076ZM281.864 400.874C282.044 400.874 282.223 401.054 282.223 401.054C282.223 401.054 282.044 401.054 281.864 400.874Z" fill="#119C97"/>
<path d="M354.762 170.036C359.609 175.789 371.46 173.991 381.155 165.722C390.851 157.631 394.801 146.305 389.953 140.373C385.105 134.62 373.255 136.417 363.559 144.687C353.864 152.957 349.914 164.283 354.762 170.036Z" fill="#A8EEE4"/>
<path d="M319.031 191.43C321.903 194.307 328.188 192.689 332.856 187.835C337.704 182.981 339.14 176.868 336.267 173.992C333.395 171.115 327.11 172.733 322.442 177.587C317.774 182.261 316.158 188.554 319.031 191.43Z" fill="#A8EEE4"/>
<path d="M440.047 124.193C440.765 127.788 447.229 129.586 454.59 128.328C461.952 127.069 467.518 123.114 466.979 119.518C466.261 115.923 459.797 114.125 452.436 115.383C445.074 116.642 439.508 120.597 440.047 124.193Z" fill="#A8EEE4"/>
<path d="M405.214 128.687C406.83 131.743 411.319 132.282 415.269 130.125C419.219 127.968 421.194 123.833 419.578 120.777C417.962 117.72 413.474 117.181 409.524 119.338C405.574 121.496 403.598 125.631 405.214 128.687Z" fill="#A8EEE4"/>
<path d="M282.044 238.533C284.378 240.87 289.047 240.151 292.099 236.915C295.331 233.679 295.869 229.184 293.535 226.847C291.201 224.51 286.533 225.229 283.481 228.465C280.249 231.521 279.53 236.196 282.044 238.533Z" fill="#A8EEE4"/>
<path d="M303.769 209.408C304.847 210.487 307.001 210.127 308.438 208.689C309.874 207.251 310.233 205.093 309.156 204.015C308.078 202.936 305.924 203.296 304.488 204.734C303.051 206.172 302.692 208.329 303.769 209.408Z" fill="#A8EEE4"/>
<path d="M350.811 196.104C351.888 197.183 354.043 196.824 355.479 195.385C356.916 193.947 357.275 191.79 356.198 190.711C355.12 189.632 352.966 189.992 351.529 191.43C349.913 193.048 349.734 195.026 350.811 196.104Z" fill="#A8EEE4"/>
<path d="M407.548 147.204C408.087 148.463 409.882 148.822 411.498 147.923C413.114 147.204 414.012 145.586 413.473 144.328C412.935 143.069 411.139 142.71 409.523 143.609C407.907 144.508 407.01 145.946 407.548 147.204Z" fill="#A8EEE4"/>
<path d="M432.327 282.399C436.995 282.399 440.765 275.927 440.945 267.657C441.125 259.387 437.354 252.735 432.686 252.735C428.018 252.735 424.247 259.207 424.067 267.477C423.888 275.567 427.658 282.219 432.327 282.399Z" fill="#197967"/>
<path d="M599.666 233.139C603.616 230.802 603.616 223.072 599.306 216.06C595.177 209.049 588.534 205.273 584.404 207.611C580.454 209.948 580.454 217.678 584.763 224.69C589.072 231.701 595.716 235.476 599.666 233.139Z" fill="#197967"/>
<path d="M436.815 264.061C435.378 264.421 433.224 262.803 432.326 260.466C431.249 258.129 431.608 255.791 433.224 255.432C434.66 255.072 436.815 256.69 437.713 259.027C438.61 261.365 438.251 263.702 436.815 264.061Z" fill="#FEFEFE"/>
<path d="M437.174 268.017C436.276 268.017 435.379 267.477 435.379 266.578C435.379 265.68 435.917 264.96 436.815 264.96C437.713 264.96 438.61 265.5 438.61 266.399C438.79 267.118 438.072 267.837 437.174 268.017Z" fill="#FEFEFE"/>
<path d="M594.818 216.06C593.741 217.139 591.047 216.6 589.072 214.802C587.097 213.004 586.379 210.847 587.456 209.948C588.534 208.869 591.227 209.408 593.202 211.206C595.177 212.824 595.895 214.982 594.818 216.06Z" fill="#FEFEFE"/>
<path d="M596.793 219.296C596.075 219.836 594.998 219.656 594.638 218.937C594.1 218.218 594.459 217.319 595.177 216.779C595.895 216.24 596.973 216.42 597.332 217.139C597.87 217.858 597.511 218.757 596.793 219.296Z" fill="#FEFEFE"/>
<path d="M517.073 224.51C516.355 224.69 515.816 225.409 515.996 226.128C516.355 227.746 516.535 229.364 516.714 230.982V230.802C516.714 230.982 516.714 230.982 516.714 231.162C516.894 232.78 516.714 234.398 516.535 235.836C516.355 236.915 515.996 237.993 515.457 239.072C515.098 239.971 514.56 240.69 514.021 241.409C513.482 242.128 512.764 242.668 512.046 243.207C511.328 243.746 510.43 244.286 509.532 244.645C508.634 245.005 507.557 245.185 506.48 245.364C505.403 245.364 504.325 245.364 503.248 245.185C502.171 245.005 501.093 244.645 500.016 244.106C498.939 243.567 498.041 242.847 496.964 242.128C495.886 241.229 494.989 240.331 494.271 239.252C493.373 237.993 492.655 236.735 492.116 235.297C491.757 234.578 490.859 234.398 490.32 234.757C489.961 234.937 489.782 235.117 489.602 235.476C489.423 235.836 489.602 236.196 489.602 236.555C490.32 238.173 491.218 239.791 492.295 241.229C493.193 242.488 494.45 243.746 495.707 244.645C498.041 246.443 500.734 247.522 503.607 247.881C506.3 248.241 508.994 247.701 511.507 246.443C514.021 245.185 515.996 243.207 517.253 240.69C518.33 238.712 518.869 236.555 519.048 234.398C519.407 231.342 518.869 228.465 518.151 225.409C517.971 224.869 517.432 224.33 516.894 224.33C517.253 224.51 517.253 224.51 517.073 224.51ZM494.271 238.712C494.271 238.892 494.45 238.892 494.271 238.712C494.271 238.892 494.45 238.892 494.271 238.712ZM500.196 243.926C500.196 243.926 500.375 243.926 500.375 244.106C500.375 244.106 500.375 243.926 500.196 243.926Z" fill="#197967"/>
<path d="M540.055 214.083C539.696 214.083 539.337 214.442 539.157 214.622C538.978 214.802 538.798 215.341 538.978 215.701C539.337 216.779 539.696 217.678 539.876 218.757C540.055 219.656 540.235 220.555 540.235 221.454C540.235 222.712 540.235 224.15 540.055 225.409C539.876 226.487 539.517 227.386 539.157 228.285C538.798 229.184 538.26 229.903 537.542 230.802C537.003 231.521 536.285 232.061 535.566 232.6C534.848 233.139 534.13 233.499 533.232 233.858C532.514 234.038 531.616 234.218 530.719 234.398C529.821 234.398 529.103 234.398 528.205 234.218C527.307 234.038 526.589 233.679 525.691 233.319C524.794 232.78 523.896 232.24 523.178 231.701C522.28 230.802 521.382 229.903 520.664 228.825C519.946 227.746 519.228 226.667 518.689 225.409C518.33 224.69 517.432 224.51 516.893 224.869C516.175 225.229 515.996 225.948 516.355 226.667C517.791 229.903 519.946 232.96 522.998 234.937C524.255 235.656 525.512 236.375 526.948 236.735C527.666 236.915 528.384 237.095 529.103 237.095C529.821 237.095 530.539 237.095 531.257 237.095C533.951 236.915 536.464 235.476 538.439 233.679C539.517 232.78 540.235 231.521 540.953 230.263C541.312 229.544 541.671 228.825 541.851 228.285C542.21 227.566 542.389 226.667 542.389 225.768C542.748 224.15 542.569 222.532 542.569 221.094C542.389 219.116 541.851 217.319 541.132 215.341C540.953 214.982 540.953 214.622 540.594 214.442C540.414 214.262 540.055 214.262 539.876 214.262C540.235 214.083 540.235 214.083 540.055 214.083ZM523.537 231.881L523.716 232.061C523.716 231.881 523.537 231.881 523.537 231.881ZM526.05 233.499C526.05 233.499 526.23 233.499 526.05 233.499C526.05 233.499 526.23 233.499 526.05 233.499ZM533.771 233.679H533.591C533.591 233.858 533.771 233.679 533.771 233.679Z" fill="#197967"/>
<path d="M481.523 92.5511C479.727 92.5511 477.752 92.5511 475.777 92.7309C474.879 92.7309 474.161 92.7309 473.263 92.9107C467.697 93.2703 461.772 93.9894 455.488 95.0681C449.024 96.3265 442.381 97.7648 435.558 99.9221C422.99 103.698 410.062 108.731 397.314 115.203C391.21 118.26 385.105 121.676 379.718 124.912C373.973 128.327 368.227 132.283 362.123 136.777C357.634 140.193 352.966 143.789 348.477 147.744C351.888 145.586 355.12 143.429 358.173 141.631C364.995 137.496 372.177 133.901 379.539 130.485C383.309 128.687 387.259 127.069 391.03 125.631C393.185 124.732 395.339 124.013 397.494 123.114C399.469 122.395 401.623 121.496 403.598 120.777C413.653 117.181 421.733 114.484 429.274 112.507C438.97 109.81 447.767 108.012 456.206 106.934C459.618 106.574 462.67 106.214 465.543 106.035C468.416 105.855 471.109 105.855 473.802 105.855C476.675 105.855 479.368 106.035 482.241 106.214C489.961 106.754 497.502 108.012 504.684 109.99C512.225 112.147 519.407 114.844 526.051 118.26C532.874 121.855 539.337 125.99 545.083 130.665C547.776 132.822 550.828 135.519 553.881 138.395C556.933 141.272 559.985 144.328 562.679 147.384C568.245 153.497 573.631 160.149 578.658 167.16C583.506 173.812 587.995 180.823 592.304 188.194C594.818 192.329 596.793 195.925 598.588 199.341C600.743 203.296 602.538 207.251 604.334 211.026C607.925 218.937 610.977 227.027 613.311 234.937C613.85 236.555 614.209 238.353 614.748 239.971C614.209 236.016 613.491 231.881 612.414 227.207C610.798 220.555 608.643 213.903 605.95 206.532C601.282 194.307 594.997 181.722 586.918 168.059C583.686 162.486 579.915 156.733 575.786 150.8C572.374 145.946 568.783 141.092 565.192 136.597C557.472 126.889 549.751 119.159 541.492 112.687C537.362 109.45 532.694 106.394 527.846 103.698C523.178 101.181 518.151 99.0232 512.585 97.2254C503.248 94.1692 492.834 92.5511 481.523 92.5511Z" fill="#4ABBB6"/>
<path d="M114.525 193.228C113.987 193.408 113.628 193.768 113.269 194.127C112.909 194.667 112.909 195.206 113.089 195.745C113.628 198.262 114.166 200.599 114.525 202.936C115.064 205.453 115.423 207.97 115.782 210.487C115.782 210.307 115.782 210.307 115.782 210.128C116.5 215.701 117.039 221.094 117.039 226.667C117.039 229.364 116.86 232.241 116.86 234.937C116.68 237.814 116.321 240.69 115.962 243.567V243.207C115.603 245.724 115.244 248.061 114.705 250.578C114.166 253.095 113.628 255.612 112.909 258.129C111.473 263.163 109.857 268.197 107.882 273.051C107.343 274.129 106.984 275.388 106.446 276.467C106.266 276.646 106.446 277.006 106.625 277.186C106.805 277.365 107.164 277.186 107.343 277.006C109.678 271.972 111.832 266.938 113.628 261.725C115.423 256.691 117.039 251.477 118.116 246.084C119.194 240.87 120.091 235.477 120.63 230.083C121.169 224.69 121.169 219.296 120.81 213.903C120.63 210.667 120.271 207.431 119.732 204.195C119.194 200.959 118.475 197.543 117.578 194.307C117.219 193.408 116.5 192.689 115.603 192.689C114.885 193.049 114.705 193.049 114.525 193.228Z" fill="#4ABBB6"/>
<path d="M107.702 206.712C106.984 206.891 106.625 207.611 106.804 208.33C107.343 210.487 107.702 212.644 108.061 214.802C108.779 221.094 108.6 227.566 107.702 233.858C107.343 236.016 106.984 238.353 106.625 240.51C106.625 240.87 106.804 241.229 107.163 241.409C107.522 241.589 107.881 241.229 108.061 240.87C109.138 235.476 110.036 230.083 110.395 224.51C110.575 221.633 110.754 218.937 110.575 216.06C110.575 214.622 110.395 213.364 110.216 211.925C110.036 210.487 109.857 209.049 109.497 207.611C109.318 207.071 108.779 206.532 108.241 206.532C107.881 206.532 107.702 206.712 107.702 206.712ZM107.881 214.442V214.622C107.881 214.622 107.881 214.622 107.881 214.442Z" fill="#4ABBB6"/>
<path d="M19.7234 232.42C19.1847 232.6 18.8257 232.96 18.4666 233.319C18.1075 233.858 18.1075 234.398 18.287 234.937C18.4666 235.656 19.0052 236.196 19.7234 236.375C21.5189 236.915 23.1348 237.634 24.7508 238.353C27.2644 239.432 29.7781 240.69 32.1123 241.949C34.6259 243.207 36.9601 244.645 39.2942 246.083C41.6283 247.522 43.9625 248.96 46.2966 250.578C48.6307 252.196 50.9649 253.814 53.1195 255.612L52.9399 255.432C56.3513 257.949 59.5832 260.646 62.6356 263.522C65.8674 266.399 69.0993 269.275 72.3312 272.152C72.5107 272.331 72.8698 272.331 73.0494 272.152C73.2289 271.972 73.2289 271.612 73.0494 271.432C69.2789 267.837 65.5083 264.421 61.7378 261.005C57.9673 257.589 54.0172 254.174 50.0671 250.938C46.1171 247.701 41.9874 244.645 37.8578 241.769C33.5486 238.892 29.0599 236.375 24.5712 234.218C23.4939 233.679 22.4166 233.139 21.1598 232.6C21.1598 232.6 20.9802 232.6 20.8007 232.42C20.6211 232.42 20.4416 232.42 20.262 232.42C20.0825 232.42 19.9029 232.42 19.7234 232.42Z" fill="#4ABBB6"/>
</g>
<g clip-path="url(#clip4_232_114)" filter="url(#filter1_d_232_114)">
<path d="M290.958 84.8126C289.923 84.9854 289.06 85.331 288.197 85.5039C287.334 85.8495 286.471 86.1951 285.435 86.7136C283.882 87.5776 282.501 88.6145 281.121 89.997C279.912 91.2067 279.049 92.5893 278.186 94.3174C277.496 95.6999 276.806 97.4281 276.633 99.329C276.288 101.057 276.288 102.785 276.461 104.686C276.633 106.414 277.151 108.315 277.841 110.044C278.532 111.772 279.74 113.5 280.948 115.055C281.638 115.919 282.329 116.611 283.192 117.302C284.055 118.166 285.09 118.684 285.953 119.203C287.506 120.24 289.232 120.931 291.476 121.622C293.202 122.141 295.101 122.486 297.344 122.659C298.725 122.832 299.933 122.832 301.486 122.832C304.248 122.832 307.009 122.659 309.598 122.486C311.497 122.313 313.395 122.141 315.294 122.141C316.329 122.141 317.192 121.968 318.055 121.968C318.4 121.968 318.746 121.968 319.091 121.968C319.781 121.968 320.644 121.968 321.335 121.968C322.543 121.968 323.578 122.141 324.786 122.313C326.685 122.486 328.411 122.659 330.309 123.177C333.243 123.869 336.005 124.733 338.594 125.943C339.975 126.634 341.355 127.325 342.736 128.189C343.944 128.88 345.152 129.744 346.188 130.609C347.396 131.473 348.604 132.509 349.64 133.719L349.812 133.892C349.812 133.892 349.812 133.892 349.812 133.719C349.295 131.645 348.777 129.226 348.086 126.807C347.396 124.56 346.706 122.313 345.67 120.067C343.772 115.574 341.528 111.426 338.594 107.451C333.416 100.366 326.167 94.1446 317.71 89.6514C313.395 87.4048 309.08 85.6767 304.593 84.8126C302.177 84.2942 299.933 84.1213 297.517 84.1213C295.273 84.1213 293.029 84.2942 290.958 84.8126Z" fill="#01C0B9"/>
<path d="M297.69 89.9969C296.654 89.9969 295.618 90.1698 294.583 90.5154C294.583 90.5154 294.583 90.5154 294.41 90.5154C293.893 90.5154 293.375 90.861 293.202 91.3795C292.857 91.8979 292.684 92.4164 292.857 92.9348C293.03 93.4532 293.202 93.9717 293.72 94.1445C293.893 94.1445 294.065 94.3173 294.238 94.3173C294.583 94.4901 294.756 94.4901 295.101 94.4901C296.136 94.6629 296.999 94.8358 298.035 94.8358C299.07 95.0086 300.278 95.0086 301.314 95.1814C303.558 95.527 305.801 95.8727 308.045 96.3911C310.634 97.0824 313.396 97.7736 315.984 98.8105C317.365 99.3289 318.746 99.8474 320.127 100.539C321.335 101.057 322.543 101.748 323.751 102.44C325.304 103.304 326.685 104.168 328.066 105.032C329.447 105.896 330.655 106.933 331.863 108.143C333.416 109.698 334.797 111.253 336.005 113.154C336.178 113.5 336.35 113.845 336.523 114.191C336.695 114.364 336.868 114.537 337.041 114.364C337.213 114.191 337.386 114.018 337.213 113.845C336.35 112.29 335.315 110.562 334.279 109.179C333.244 107.624 331.863 106.069 330.655 104.686C329.274 103.131 327.721 101.748 326.34 100.539C324.787 99.1561 323.061 98.1192 321.335 96.9095C317.71 94.6629 313.913 92.9348 309.944 91.7251C307.873 91.0338 305.801 90.6882 303.73 90.3426C302.35 90.1698 301.141 89.9969 299.761 89.9969C299.07 89.9969 298.38 89.9969 297.69 89.9969ZM323.578 102.44C323.578 102.44 323.751 102.44 323.751 102.612C323.751 102.612 323.578 102.612 323.578 102.44Z" fill="#FEFEFE"/>
<path d="M286.298 91.898C285.781 92.2436 285.608 92.762 285.608 93.2805C285.435 94.3174 286.298 95.5271 287.506 95.5271C288.024 95.5271 288.542 95.3543 289.06 95.0086C289.578 94.663 289.75 94.1446 289.75 93.6261C289.923 92.5892 289.06 91.3795 287.852 91.3795C287.334 91.3795 286.816 91.5523 286.298 91.898Z" fill="#FEFEFE"/>
<path d="M362.757 91.2066C362.412 91.3794 361.894 91.5522 361.549 91.725C361.204 91.8979 360.686 92.2435 360.341 92.4163C358.615 93.626 357.407 95.1813 356.371 96.5639C355.508 97.7736 354.818 99.1561 354.127 100.539C353.437 101.921 353.092 103.649 352.574 105.55C351.884 109.007 351.884 112.636 352.402 116.783C352.919 120.412 353.782 124.214 355.336 127.843C356.716 131.3 358.442 134.41 360.686 137.175C360.513 136.138 360.513 135.102 360.513 134.065C360.686 131.818 361.204 129.571 361.894 127.498C362.584 125.424 363.275 123.523 364.138 121.622C364.828 119.894 365.519 118.166 366.209 116.438C367.244 113.845 368.28 111.253 369.316 108.661C369.833 107.106 370.351 105.377 370.696 103.476C371.042 101.575 371.214 99.8473 371.214 98.292C371.214 96.391 370.696 94.8357 369.833 93.4532C368.97 92.0707 367.244 91.0338 365.519 90.861C365.173 90.861 365.001 90.861 364.656 90.861C363.965 91.0338 363.275 91.0338 362.757 91.2066Z" fill="#01C0B9"/>
<path d="M359.132 98.8106C358.96 98.8106 358.787 98.9834 358.442 98.9834C358.269 99.1563 358.097 99.3291 358.097 99.5019C357.406 100.712 356.889 102.094 356.371 103.649C356.026 105.205 355.68 106.76 355.508 108.315C355.335 109.871 355.335 111.426 355.335 112.981C355.335 114.537 355.508 116.092 355.508 117.647C355.508 117.82 355.853 117.993 356.026 117.993C356.198 117.993 356.371 117.82 356.371 117.475C356.371 117.129 356.371 116.611 356.371 116.265C356.371 112.981 356.716 109.525 357.579 106.414C358.097 104.859 358.787 103.304 359.478 101.921C359.65 101.576 359.995 101.23 360.168 100.884C360.34 100.539 360.513 100.366 360.513 99.8475C360.513 99.5019 360.341 99.1563 359.995 98.9834C359.823 98.8106 359.478 98.6378 359.132 98.6378C359.305 98.8106 359.132 98.8106 359.132 98.8106Z" fill="#FEFEFE"/>
<path d="M314.776 132.164C312.533 132.337 310.289 132.682 308.218 133.201C305.111 134.065 301.832 135.62 299.07 137.694C297.517 138.731 296.309 140.113 295.446 141.323C294.41 142.706 293.72 144.434 293.547 145.989C293.375 147.717 293.893 149.445 294.755 151.174C295.273 152.038 295.791 152.729 296.309 153.247C296.654 153.593 296.999 153.766 297.344 154.111C297.69 154.457 298.207 154.63 298.553 154.803C299.07 155.148 299.761 155.321 300.624 155.494C300.969 155.494 301.487 155.667 301.832 155.667C302.177 155.667 302.695 155.667 303.04 155.667C303.903 155.667 304.593 155.321 305.111 155.321C305.974 155.148 306.837 154.803 307.7 154.457C310.634 153.247 313.223 151.346 315.812 149.618L316.502 149.1L317.365 148.409C317.883 148.063 318.573 147.544 319.091 147.199C320.817 146.162 322.715 145.298 324.959 144.607H325.132C325.477 144.607 325.65 144.434 325.995 144.434C326.685 144.261 327.375 144.088 327.893 143.915C329.792 143.57 331.69 143.397 333.761 143.397C333.934 143.397 334.107 143.397 334.279 143.397C336.35 143.397 338.421 143.743 340.32 144.261C341.355 144.607 342.218 144.952 343.081 145.471C343.427 145.643 343.772 145.816 344.117 145.989C343.254 144.261 342.046 142.533 340.32 140.977C338.767 139.595 337.041 138.212 334.797 137.003C331 134.756 326.34 133.374 321.507 132.682C319.954 132.51 318.401 132.337 316.847 132.337C316.502 132.164 315.639 132.164 314.776 132.164Z" fill="#01C0B9"/>
<path d="M311.497 135.966C309.426 136.311 307.354 137.175 305.283 138.04C304.248 138.558 303.212 139.076 302.177 139.595C301.141 140.113 300.278 140.805 299.415 141.323C298.552 141.841 298.38 143.051 298.897 143.915C299.588 144.952 301.141 145.125 301.832 144.088C302.177 143.57 302.694 143.224 303.04 142.706C303.212 142.533 303.385 142.533 303.385 142.36C304.075 141.669 304.766 141.15 305.629 140.632C306.319 140.113 307.182 139.768 307.872 139.249C308.908 138.731 309.943 138.385 310.979 137.867C312.187 137.521 313.223 137.003 314.431 136.83C314.431 136.83 314.431 136.83 314.258 136.83C316.329 136.484 318.228 136.311 320.299 136.311C320.299 136.311 320.299 136.311 320.471 136.311C321.68 136.311 322.888 136.484 324.096 136.83C324.269 136.83 324.614 136.657 324.614 136.484C324.614 136.311 324.441 135.966 324.269 135.966C322.197 135.447 320.126 135.275 318.055 135.275C317.883 135.275 317.883 135.275 317.71 135.275C315.812 135.447 313.568 135.62 311.497 135.966ZM303.903 142.187L303.73 142.36C303.73 142.36 303.73 142.187 303.903 142.187Z" fill="#FEFEFE"/>
<path d="M466.83 104.168C459.926 105.032 453.022 106.242 445.601 107.97C432.139 111.081 418.331 115.574 404.351 121.449C397.62 124.214 391.234 127.325 385.194 130.609C378.98 133.892 372.594 137.521 365.863 142.014C354.299 149.445 342.736 158.259 330.654 168.801C325.304 173.467 319.954 178.305 314.258 184.008C309.598 188.502 304.766 193.513 298.38 200.253C294.583 204.228 290.958 208.202 287.334 212.177C281.638 218.399 275.943 224.62 269.902 230.841C258.856 242.247 249.191 251.233 239.353 258.837L239.18 259.01L239.008 259.183C222.439 271.971 207.769 280.785 193.098 287.179H193.271C188.266 289.253 183.26 290.981 178.255 292.536C173.078 294.091 167.555 295.128 161.859 295.992C157.199 296.511 152.712 296.856 148.052 296.856H147.706C143.392 296.856 138.904 296.511 134.072 295.992C132.173 295.82 130.447 295.474 128.549 295.128C131.138 291.326 133.554 287.524 135.798 283.723C138.041 279.575 140.112 275.082 141.838 269.552C145.118 259.701 146.844 249.505 146.671 239.482C146.671 234.989 146.326 230.323 145.635 225.83C145.29 223.929 144.945 221.855 144.6 219.954C143.392 213.041 142.011 207.511 140.285 202.5C139.249 199.216 138.041 196.797 136.833 194.55C135.798 192.822 134.244 190.403 132.001 188.847C130.965 188.156 129.929 187.637 128.721 187.465C128.376 187.292 127.858 187.292 127.341 187.292C126.65 187.292 125.96 187.465 125.269 187.637C124.406 187.81 123.544 188.329 122.508 189.193C121.472 190.057 120.609 191.094 119.747 191.958C117.675 194.377 115.949 197.315 114.741 199.735C113.361 202.327 111.807 205.265 110.254 208.894C109.218 211.313 108.183 213.733 106.802 217.189L106.629 217.88C105.939 219.608 105.076 221.509 104.386 223.237C100.934 232.397 99.0354 241.556 98.6902 250.715C98.3451 260.393 100.071 269.552 103.523 278.02C99.3806 273.526 95.0658 269.033 90.2332 264.54C86.7814 261.257 83.1569 258.146 79.5325 254.862C75.2177 251.061 71.9384 248.468 68.8318 246.049C64.6896 242.938 60.7199 240.346 56.7503 238.272C52.4355 236.026 48.1207 234.47 43.9785 233.779C42.2525 233.433 40.5266 233.261 38.6281 233.261C38.2829 233.261 37.9377 233.261 37.5926 233.261C35.8666 233.261 34.3133 233.606 32.76 234.125C30.3437 234.989 28.4452 236.89 27.5822 239.136C26.8918 241.21 26.8918 243.629 27.4096 246.913C27.9274 250.024 28.9629 252.961 29.9985 255.727C30.3437 256.591 30.6889 257.627 31.034 258.492L31.5518 260.047C31.897 260.738 32.0696 261.602 32.4148 262.293C32.76 263.158 33.1052 264.022 33.2777 264.886C34.6585 268.688 36.3844 272.49 38.2829 275.946C40.1814 279.402 42.4251 282.513 44.6688 285.451C46.9125 288.216 49.5014 290.808 52.2629 293.227C57.2681 297.548 63.3088 301.177 70.2125 304.115C76.4258 306.707 83.3295 308.608 91.2688 310.163C98.1725 311.373 105.421 312.064 114.224 312.583C114.569 312.583 115.087 312.583 115.432 312.583H115.604C123.889 326.408 131.655 338.505 139.422 349.392C148.397 361.835 158.062 373.586 167.9 384.128C177.047 393.978 187.403 403.483 198.276 412.47C206.56 419.209 215.19 425.603 224.165 431.479C226.236 432.343 228.307 433.035 230.378 433.899C238.317 436.664 246.257 439.083 254.369 440.984C262.48 442.885 270.592 444.095 278.877 444.959C278.704 444.959 278.704 444.959 278.531 444.959C285.78 445.65 293.202 445.823 300.623 445.477C307.527 445.132 314.603 444.44 321.334 443.231C327.548 442.194 333.588 440.638 339.457 438.737C345.325 436.836 351.193 434.59 356.716 431.825C362.239 429.06 367.762 426.122 372.939 422.666C378.29 419.209 383.295 415.235 388.128 411.087C394.341 405.73 400.036 400.027 405.559 393.978C413.326 385.51 420.402 376.697 427.479 367.711C434.555 358.724 441.459 349.738 448.88 341.097C456.129 332.456 463.896 323.988 472.353 316.385C476.495 312.755 480.637 309.126 485.124 305.843C489.612 302.559 494.444 299.449 499.277 296.511C518.78 285.105 540.354 277.501 562.618 274.045C571.248 272.662 580.05 271.971 588.68 271.971C591.269 271.971 593.685 271.971 596.274 272.144C602.66 272.49 609.046 272.835 615.432 273.526C618.711 273.872 621.818 274.391 625.097 274.909C624.924 268.169 624.234 261.257 622.853 253.48C621.645 246.395 619.919 239.136 617.503 231.36C613.533 218.226 607.665 204.573 599.898 189.538C596.792 183.49 593.167 177.096 589.37 170.529C586.091 165.172 582.639 159.814 579.187 154.803C571.766 144.088 563.999 135.447 555.715 128.189C551.4 124.387 546.913 120.931 541.907 117.82C537.247 114.882 531.897 112.29 526.201 109.871C515.156 105.378 502.211 103.131 487.886 102.785C487.023 102.785 486.16 102.785 485.297 102.785C479.774 103.131 473.561 103.477 466.83 104.168Z" fill="#5DD2CE"/>
<path d="M585.746 264.713C584.02 264.713 582.121 264.713 580.05 264.886C577.461 265.059 574.872 265.231 572.284 265.404C564.344 266.268 556.578 267.651 548.811 269.725C544.669 270.761 540.872 271.971 537.247 273.181C533.45 274.391 529.653 275.773 525.856 277.328C516.364 280.957 507.216 285.278 498.414 290.289C493.927 292.882 489.784 295.301 485.987 297.721C482.19 300.14 478.566 302.732 475.114 305.152C472.007 307.571 469.246 309.645 466.657 311.891C463.55 314.484 460.789 317.249 458.2 320.014C455.439 322.779 452.85 325.717 450.433 328.654C447.845 331.592 445.428 334.53 443.012 337.641C440.596 340.579 438.352 343.516 436.108 346.8L432.484 351.639L430.93 353.713C429.032 356.305 427.133 358.897 425.062 361.489C421.956 365.637 418.159 370.648 414.189 375.487C410.219 380.153 406.422 384.646 402.453 388.794C398.138 393.287 393.996 397.262 389.854 401.064C385.366 405.211 380.879 408.84 376.391 412.124C371.559 415.753 367.071 418.864 362.584 421.629C357.406 424.739 352.228 427.504 347.223 429.924C341.873 432.343 336.522 434.59 331.517 436.145C328.411 437.182 325.477 438.046 322.715 438.737C319.781 439.429 316.847 440.12 314.085 440.638C307.527 441.848 301.486 442.712 295.791 443.231C291.648 443.576 287.506 443.749 283.537 443.749C281.12 443.749 279.222 443.749 277.496 443.576C271.455 443.231 265.76 442.712 260.409 441.675C254.369 440.638 248.673 439.256 242.977 437.528C237.282 435.8 231.759 433.726 226.409 431.306C223.129 429.924 219.85 428.196 216.398 426.64C220.713 429.751 225.546 433.035 230.723 436.318C252.988 450.143 276.806 460.858 301.486 467.943C324.096 474.51 347.568 477.794 371.041 477.794C373.112 477.794 375.011 477.794 377.082 477.794C402.798 477.102 428.687 472.263 453.713 463.277C465.794 458.957 478.048 453.427 490.475 446.687C500.83 440.984 511.186 434.936 521.196 428.369C531.724 421.456 542.08 414.025 551.745 406.075C562.101 397.78 571.593 388.967 580.05 379.808C589.025 370.303 596.792 360.452 603.35 350.256C610.081 339.715 615.432 328.827 619.229 317.594C621.3 311.719 622.853 305.324 623.889 298.585C625.097 291.499 625.615 284.068 625.442 276.291C625.442 275.255 625.442 274.218 625.269 273.181C624.752 273.008 624.406 272.835 624.061 272.662C620.437 271.107 616.985 269.897 613.706 269.033C611.807 268.515 609.909 267.996 608.355 267.651C606.457 267.305 604.731 266.959 602.832 266.614C597.655 265.923 592.65 265.404 587.817 265.404C587.127 264.713 586.436 264.713 585.746 264.713Z" fill="#EBFAF8"/>
<path d="M583.502 264.886C581.949 275.6 579.532 286.315 576.253 296.511C568.141 322.088 555.715 346.282 540.526 368.402C526.374 388.794 509.632 407.458 490.82 423.703C472.007 439.947 451.124 453.945 428.341 463.969C417.123 468.98 405.559 472.955 393.65 475.72C392.615 475.893 391.579 476.238 390.544 476.411C411.945 474.683 433.001 470.017 453.713 462.586C460.616 460.167 467.692 457.229 474.769 453.945C489.612 445.996 503.592 436.491 516.709 425.604L516.364 425.776C520.333 422.493 524.13 419.037 527.927 415.58C543.633 400.891 557.786 384.474 570.04 366.847C570.04 367.019 569.867 367.019 569.867 367.192C572.111 364.082 574.182 360.798 576.253 357.687C587.472 340.233 596.964 321.742 604.213 302.214C606.112 297.029 607.665 291.845 608.873 286.488C610.081 281.303 610.944 275.946 611.462 270.589C611.462 269.725 611.635 269.033 611.635 268.169C610.426 267.824 609.218 267.651 608.183 267.305C606.284 266.96 604.558 266.614 602.66 266.268C597.654 265.577 592.649 265.059 587.472 265.059C586.781 265.059 586.091 265.059 585.4 265.059C585.055 264.886 584.192 264.886 583.502 264.886Z" fill="#A8EEE4"/>
<path d="M612.843 280.957C611.808 286.833 610.254 292.709 608.356 298.412C606.63 303.423 604.731 308.435 602.66 313.446C600.762 318.112 598.518 322.779 596.274 327.445C586.954 346.454 575.736 364.6 562.619 381.363C549.502 398.299 534.486 414.025 517.917 427.85C514.12 430.961 510.151 434.071 506.181 437.009C511.186 434.071 516.191 430.961 521.024 427.677C531.552 420.765 541.908 413.333 551.573 405.384C561.928 397.089 571.421 388.275 579.878 379.116C588.68 369.611 596.619 359.761 603.178 349.738C609.909 339.196 615.259 328.309 619.056 317.076C621.128 311.2 622.681 304.806 623.716 298.066C624.925 290.981 625.442 283.55 625.27 275.773C625.27 274.736 625.27 273.699 625.097 272.662C624.752 272.489 624.234 272.317 623.889 272.144H624.062C620.782 270.761 617.503 269.552 614.224 268.515C614.051 272.835 613.533 276.81 612.843 280.957Z" fill="#A8EEE4"/>
<path d="M580.051 264.886C577.462 265.059 574.873 265.231 572.284 265.404C564.345 266.268 556.578 267.651 548.811 269.725C544.842 270.761 541.045 271.798 537.248 273.181C536.212 273.526 535.177 273.872 534.141 274.218C533.451 279.057 532.588 283.895 531.552 288.734C529.136 299.621 526.029 310.509 522.06 321.051C517.054 334.184 510.841 346.973 503.42 359.07C497.206 369.439 490.13 379.289 482.363 388.621C467.003 407.112 449.053 423.357 429.032 436.491C409.184 449.452 387.265 459.302 364.31 465.005C352.746 467.943 340.838 469.671 329.101 470.363C324.096 470.708 319.091 470.708 314.258 470.535C331.345 474.51 348.777 476.757 366.381 477.102C371.732 476.757 377.082 476.238 382.432 475.374C398.656 472.609 414.534 467.597 429.55 460.685C429.55 460.685 429.55 460.685 429.723 460.685C429.723 460.685 429.723 460.685 429.55 460.685C449.743 451.526 468.383 439.256 485.47 425.085H485.297C486.333 424.221 487.196 423.357 488.231 422.493C507.044 406.248 523.785 387.757 538.111 367.365C538.111 367.365 538.111 367.365 538.111 367.538C551.4 348.528 562.446 328.136 570.385 306.361C575.391 292.882 579.015 278.884 581.086 264.713C580.568 264.886 580.396 264.886 580.051 264.886ZM485.125 425.258C484.952 425.258 485.125 425.258 485.125 425.258C484.952 425.258 485.125 425.258 485.125 425.258ZM429.723 460.512C429.55 460.685 429.723 460.685 429.723 460.512C429.55 460.685 429.723 460.685 429.723 460.512Z" fill="#A8EEE4"/>
<path d="M525.856 277.156C516.536 280.785 507.216 285.105 498.414 290.117C496.171 291.326 493.754 292.709 491.511 294.091C491.511 294.264 491.511 294.264 491.511 294.437C488.059 307.744 483.054 320.532 477.013 332.802C470.8 345.245 463.551 357.169 455.439 368.575C447.327 379.808 438.525 390.349 428.687 400.027C423.854 404.693 419.022 409.359 413.844 413.679C408.666 418 403.316 421.974 397.793 425.776C386.92 433.035 375.183 439.083 362.929 443.749C350.848 448.415 338.249 451.699 325.477 453.6C312.532 455.501 299.415 456.019 286.471 454.982C279.912 454.464 273.354 453.6 266.795 452.39C263.689 451.871 260.755 451.18 257.648 450.489C271.801 457.401 286.643 462.932 301.659 467.425C317.192 468.807 332.898 468.116 348.432 465.697C365.863 462.759 382.95 457.574 399.174 450.143C399.001 450.143 399.001 450.316 398.829 450.316C416.951 442.021 434.037 431.134 449.398 418.345C449.398 418.345 449.398 418.345 449.225 418.518C465.794 404.693 480.292 388.621 492.719 370.994C492.719 370.994 492.719 370.994 492.719 370.821C492.719 370.821 492.719 370.648 492.891 370.648C498.242 362.872 503.247 354.749 507.734 346.454C512.567 337.295 516.882 327.79 520.506 318.113L520.679 317.767C520.679 317.767 520.679 317.767 520.679 317.94C523.958 309.126 526.547 300.14 528.618 291.154C529.826 285.969 530.862 280.612 531.552 275.255C529.481 275.773 527.582 276.464 525.856 277.156Z" fill="#A8EEE4"/>
<path d="M485.815 297.547C482.19 299.967 478.566 302.386 474.941 304.978C474.941 304.978 474.941 304.978 475.114 304.978C472.18 307.225 469.419 309.472 466.657 311.718C463.723 314.31 460.789 316.903 458.2 319.841C455.439 322.606 452.85 325.543 450.433 328.481C447.845 331.419 445.428 334.357 443.012 337.468C440.596 340.406 438.352 343.516 436.108 346.627C432.484 351.466 428.859 356.304 425.235 361.143C421.611 365.809 418.159 370.475 414.362 375.141C410.565 379.634 406.768 384.128 402.625 388.448C398.656 392.596 394.513 396.743 390.026 400.718C385.711 404.693 381.224 408.322 376.564 411.778C372.076 415.062 367.417 418.345 362.584 421.283C357.579 424.221 352.574 427.159 347.223 429.578C342.218 431.997 336.868 434.071 331.517 435.799C328.583 436.836 325.649 437.7 322.715 438.392C319.781 439.083 317.02 439.774 314.085 440.293C308.045 441.502 302.004 442.366 295.791 442.885C289.75 443.403 283.709 443.576 277.496 443.23C271.8 442.885 266.105 442.366 260.409 441.329C254.541 440.292 248.673 438.91 242.977 437.182C237.282 435.454 231.759 433.38 226.409 430.96C222.957 429.405 219.677 427.85 216.398 426.294C221.058 429.578 225.891 432.861 230.723 435.799C236.074 439.083 241.424 442.193 246.947 445.131C247.12 445.131 247.292 445.131 247.465 445.131C258.856 448.588 270.592 450.834 282.501 452.044C282.328 452.044 282.328 452.044 282.156 452.044C297.171 453.426 312.36 453.081 327.202 450.661C342.391 448.069 357.234 443.576 371.386 437.182C386.056 430.442 399.864 421.801 412.291 411.432C412.291 411.432 412.29 411.432 412.118 411.605C420.402 404.693 428.169 397.089 435.245 389.139C442.494 381.017 449.225 372.549 455.611 363.736C467.002 347.491 476.495 330.037 483.399 311.373C485.297 306.361 486.85 301.349 488.231 296.165C487.368 296.511 486.678 297.029 485.815 297.547ZM371.731 437.009C371.731 437.009 371.559 437.009 371.559 437.182C371.559 437.009 371.731 437.009 371.731 437.009Z" fill="#A8EEE4"/>
<path d="M220.713 429.06C220.368 428.714 219.85 428.541 219.505 428.196C223.129 430.788 226.926 433.207 230.896 435.799C236.246 439.083 241.769 442.366 247.12 445.131H247.292C247.465 445.131 247.465 445.131 247.638 445.131C256.44 447.724 265.587 449.797 274.907 451.18C277.496 451.526 280.085 451.871 282.674 452.044H282.501H282.674C288.197 452.563 293.892 452.908 299.588 452.908C309.08 452.908 318.4 452.217 327.72 450.662C340.147 448.588 352.229 445.304 363.965 440.638C351.883 440.12 339.802 438.91 327.893 437.009C326.685 437.355 325.477 437.7 324.269 438.046C323.923 438.219 323.406 438.219 323.06 438.392C320.126 439.083 317.192 439.774 314.431 440.293C307.872 441.502 301.832 442.366 296.136 442.885C291.821 443.231 287.679 443.403 283.882 443.403C281.638 443.403 279.74 443.403 277.841 443.231C271.8 442.885 266.105 442.366 260.755 441.33C257.13 440.638 253.678 439.947 250.226 439.083C247.81 438.565 245.566 437.873 243.323 437.182C242.115 436.836 240.906 436.491 239.698 435.972C236.419 434.935 233.312 433.726 230.206 432.343C228.998 431.825 227.962 431.479 226.754 430.961C225.028 430.269 223.302 429.405 221.576 428.541C220.023 427.85 218.469 426.986 216.916 426.295C218.124 427.159 219.505 428.196 220.713 429.06Z" fill="#91EEE2"/>
<path d="M375.701 440.638C373.802 440.638 371.904 440.638 370.005 440.638C367.762 441.675 365.345 442.712 362.929 443.576C350.848 448.242 338.248 451.526 325.477 453.427C316.847 454.636 308.217 455.328 299.588 455.328C295.273 455.328 290.958 455.155 286.471 454.809C279.912 454.291 273.181 453.427 266.795 452.217L265.76 452.044C263.516 451.698 261.272 451.18 259.201 450.662C258.856 450.489 258.338 450.489 257.993 450.316C269.557 456.019 281.811 460.858 294.065 464.832C296.654 465.696 299.243 466.388 301.831 467.252C307.182 467.77 312.705 467.943 318.228 467.943C328.411 467.943 338.594 467.079 348.604 465.524C365.863 462.759 382.95 457.401 399.346 449.97C407.63 446.168 415.915 441.675 424.027 436.664C407.803 439.429 391.752 440.811 375.701 440.638Z" fill="#91EEE2"/>
<path d="M471.49 424.739C464.414 426.986 457.337 429.232 450.261 430.961C443.703 432.689 436.971 434.244 430.24 435.454L429.032 436.145C408.494 449.625 386.747 459.129 364.31 464.659C352.574 467.597 340.665 469.326 329.101 470.017C325.477 470.19 321.852 470.362 318.401 470.362C317.192 470.362 315.984 470.362 314.776 470.362C314.603 470.362 314.431 470.362 314.258 470.362C331.172 474.337 348.777 476.584 366.209 476.929C371.386 476.584 376.909 476.065 382.26 475.201C397.966 472.609 413.844 467.597 429.377 460.512C448.535 451.698 467.348 439.774 485.125 424.912C485.988 424.221 487.023 423.357 488.059 422.493C490.82 420.073 493.582 417.654 496.343 415.062C488.231 418.691 479.947 421.974 471.49 424.739Z" fill="#91EEE2"/>
<path d="M546.568 387.239C535.177 395.188 523.268 402.446 510.841 408.668C508.425 409.877 506.009 411.087 503.42 412.124C503.42 412.124 503.42 412.124 503.592 412.124C499.45 416.271 495.135 420.073 490.993 423.702C471.145 440.811 450.089 454.464 428.515 463.968C416.778 469.153 405.215 473.128 393.824 475.72L393.133 475.893C392.443 476.065 391.58 476.238 390.89 476.411C391.752 476.411 392.615 476.238 393.651 476.238C397.793 475.893 401.763 475.374 405.732 474.856H406.078C422.129 472.609 438.18 468.462 454.058 462.759C460.962 460.339 468.038 457.401 475.115 454.118C486.333 448.242 497.552 440.984 508.425 432.689C511.186 430.442 514.12 428.196 516.882 425.949L516.709 426.122C520.334 423.184 524.303 419.728 528.273 416.099C542.598 402.792 555.888 387.757 567.624 371.34C560.72 376.697 553.644 382.054 546.568 387.239Z" fill="#91EEE2"/>
<path d="M604.904 330.382C596.619 341.269 587.644 351.638 577.807 361.143C577.116 361.834 576.426 362.526 575.735 363.044C575.735 363.044 575.735 363.044 575.735 363.217C575.735 363.217 575.735 363.217 575.908 363.044C571.766 369.265 567.451 375.314 562.964 381.017C549.501 398.471 534.486 414.025 518.262 427.504C515.155 430.096 511.876 432.689 508.77 434.935C508.079 435.454 507.389 435.972 506.698 436.49C511.358 433.725 516.191 430.788 521.369 427.331C531.897 420.419 542.252 412.988 551.918 405.038C562.273 396.743 571.766 387.929 580.223 378.77C589.198 369.265 596.964 359.415 603.523 349.392C610.254 338.85 615.604 327.963 619.401 316.73L619.746 315.866L620.092 314.829C621.3 311.2 622.335 307.225 623.198 303.077C617.503 312.755 611.462 321.914 604.904 330.382Z" fill="#91EEE2"/>
<path d="M27.755 239.482C27.0647 241.556 27.0647 243.975 27.5825 247.259C28.1002 250.369 29.1358 253.48 30.1713 256.072C30.5165 256.936 30.6891 257.627 31.0343 258.492L31.2069 258.837L31.7247 260.392C31.8973 260.911 32.0699 261.429 32.2425 262.121L32.415 262.639C32.7602 263.503 33.1054 264.367 33.278 265.231C34.6587 269.033 36.3847 272.835 38.4558 276.291C40.3543 279.575 42.4254 282.858 44.8417 285.796C47.0854 288.561 49.6743 291.154 52.4358 293.573C57.4409 297.893 63.4817 301.522 70.3854 304.46C76.5987 307.052 83.5024 308.953 91.4416 310.509C98.3453 311.718 105.594 312.41 114.396 312.928C114.742 312.928 115.259 312.928 115.605 312.928H115.777C124.062 326.753 131.828 338.678 139.595 349.738C148.57 362.18 158.235 373.932 168.073 384.474C177.393 394.324 187.576 403.829 198.449 412.815C204.144 417.481 210.185 422.147 216.399 426.468C219.85 428.196 223.302 429.751 226.409 431.134C231.759 433.38 237.282 435.454 242.978 437.355C248.501 439.083 254.369 440.466 260.41 441.502C265.76 442.367 271.628 443.058 277.496 443.403C279.395 443.576 281.293 443.576 283.537 443.576C287.334 443.576 291.476 443.403 295.791 443.058C301.487 442.539 307.355 441.848 314.086 440.466C316.847 439.947 319.781 439.256 322.715 438.565C324.269 438.219 325.822 437.701 327.548 437.182C326.858 437.009 326.167 437.009 325.304 436.836C308.563 433.899 291.994 429.751 275.77 424.221C259.719 418.691 244.186 412.124 229.17 404.174C221.576 400.2 213.982 395.879 206.733 391.386C199.312 386.72 192.236 382.054 185.159 376.87C178.428 371.858 171.697 366.501 165.484 360.798C159.27 355.095 153.23 349.047 147.534 342.652C141.839 336.258 136.316 329.518 131.138 322.779C129.585 320.878 128.204 318.804 126.823 316.903C125.788 315.52 124.752 313.965 123.716 312.583C122.336 310.682 120.782 308.781 118.884 307.225C118.366 306.88 117.848 306.361 117.158 306.016C116.64 305.67 115.95 305.324 115.432 305.152C113.188 304.287 110.772 303.596 108.356 303.251C105.767 302.732 103.178 302.214 100.589 301.695C95.5838 300.486 90.5787 299.276 85.7461 297.548C80.7409 295.82 75.7357 293.919 70.9031 291.672C66.2431 289.425 61.7557 287.006 57.4409 284.068C53.1261 281.13 49.1565 277.847 45.5321 274.218C42.2528 270.761 39.1461 266.959 36.5573 262.812C34.141 257.627 32.0699 252.961 30.6891 247.95C29.9987 245.358 29.481 242.765 29.1358 240.173C28.9632 239.309 28.9632 238.445 28.7906 237.581C28.4454 238.099 28.1002 238.618 27.755 239.482Z" fill="#4ABBB6"/>
<path d="M118.884 306.706C118.712 306.534 118.884 306.534 118.884 306.706C118.712 306.534 118.884 306.534 118.884 306.706Z" fill="#4ABBB6"/>
<path d="M332.898 341.097C331.518 341.097 329.964 341.27 328.583 341.442C326.167 341.788 323.923 342.479 321.852 343.343C320.817 343.862 319.954 344.38 318.746 345.072C317.71 345.763 316.847 346.627 315.984 347.491C315.639 347.837 315.639 348.355 315.639 348.701C314.603 350.256 313.568 351.639 312.532 352.675C309.426 356.132 305.974 359.415 302.695 362.526L300.623 364.6C296.136 368.92 291.821 373.068 288.024 377.734C285.263 381.017 281.984 385.683 281.121 390.695C280.775 392.768 280.948 395.015 281.811 396.916C282.674 398.817 284.227 400.718 286.471 402.273C287.679 403.137 289.232 404.001 290.441 404.52C291.821 405.211 293.375 405.902 295.273 406.421C299.415 407.803 303.903 408.667 308.563 409.013C310.289 409.186 312.015 409.186 313.74 409.186C316.502 409.186 319.436 409.013 322.37 408.667C326.858 408.149 331.345 407.112 335.832 405.73C344.807 402.965 353.092 398.644 360.168 393.114C363.965 390.176 367.244 386.893 369.488 383.264C372.077 379.289 373.457 375.141 373.63 370.994C373.803 366.673 372.422 362.353 369.66 358.551C368.107 356.305 366.036 354.231 363.102 351.984C360.513 350.083 357.579 348.182 353.955 346.454C350.675 344.899 347.223 343.516 343.599 342.652C340.147 341.615 336.523 341.097 332.898 341.097Z" fill="#5DD2CE"/>
<path d="M366.036 386.547C362.411 388.794 358.442 390.695 354.299 392.25C352.228 393.114 349.985 393.805 347.914 394.497C345.325 395.188 342.908 396.052 340.319 396.57C335.314 397.78 330.137 398.817 324.959 399.508C319.781 400.027 314.603 400.2 309.425 399.681C308.045 399.508 306.664 399.336 305.283 399.163C304.075 398.99 303.04 398.817 301.831 398.471C300.451 398.126 299.07 397.78 297.862 397.262C296.308 396.743 294.755 396.052 293.374 395.361C291.994 394.67 290.44 393.805 289.232 392.769C288.024 391.904 286.816 390.868 285.78 389.658C285.263 389.139 284.745 388.448 284.4 387.757C284.054 387.238 283.709 386.547 283.537 385.856C283.364 385.51 283.364 385.165 283.191 384.819C282.328 386.547 281.638 388.448 281.293 390.522C280.948 392.596 281.12 394.669 281.983 396.743C282.846 398.644 284.4 400.545 286.643 402.101C287.851 402.965 289.405 403.829 290.613 404.347C291.994 405.038 293.547 405.73 295.445 406.248C299.588 407.631 304.075 408.495 308.735 408.84C310.461 409.013 312.187 409.013 313.913 409.013C316.674 409.013 319.608 408.84 322.542 408.495C327.03 407.976 331.517 406.939 336.005 405.557C344.979 402.792 353.264 398.471 360.34 392.941C363.792 390.349 366.726 387.238 368.97 384.128C368.107 385.165 367.071 385.856 366.036 386.547Z" fill="#4ABBB6"/>
<path d="M313.74 350.429C312.532 351.984 311.151 353.539 309.771 354.922C308.39 356.477 306.837 357.86 305.283 359.242C302.177 362.18 298.897 364.945 295.791 367.71C292.684 370.648 289.577 373.586 286.988 376.869C285.78 378.425 284.572 380.153 283.537 381.881C283.019 382.745 282.501 383.609 282.156 384.473C281.638 385.51 281.12 386.547 280.775 387.584C280.43 388.621 280.257 389.485 280.085 390.522C279.912 391.559 280.085 392.596 280.085 393.46C280.257 394.324 280.43 395.188 280.775 396.052C281.12 396.916 281.466 397.607 281.983 398.471C284.054 401.755 287.334 404.001 290.613 405.729C294.755 407.803 299.07 408.84 303.557 409.704C306.146 410.223 308.908 410.395 311.669 410.395C314.431 410.395 317.02 410.223 319.781 410.05C322.37 409.704 324.959 409.359 327.375 408.84C329.964 408.322 332.553 407.63 334.969 406.939C339.284 405.557 343.599 404.001 347.741 401.928C351.883 400.027 355.68 397.607 359.305 394.842C363.102 392.077 366.554 388.966 369.66 385.337C369.833 385.165 369.833 384.992 369.66 384.646C369.488 384.473 369.142 384.473 368.97 384.646C366.208 387.757 363.274 390.522 359.822 392.941C354.472 396.57 348.604 399.508 342.563 401.755C342.563 401.755 342.563 401.755 342.736 401.755H342.563H342.391C342.391 401.755 342.391 401.755 342.563 401.755C339.284 402.964 336.005 404.001 332.553 404.865C328.411 405.902 324.441 406.766 320.126 407.285C317.71 407.458 315.121 407.63 312.705 407.458C310.288 407.458 307.7 407.112 305.283 406.766H305.456H305.283H305.111C305.111 406.766 305.111 406.766 305.283 406.766C302.867 406.421 300.451 405.729 298.034 405.038C296.481 404.52 294.755 404.001 293.202 403.31C291.131 402.446 289.232 401.236 287.506 399.854C286.471 398.99 285.608 398.126 284.745 397.089C284.227 396.397 283.882 395.533 283.537 394.669C283.364 393.978 283.191 393.287 283.019 392.423C283.019 391.559 283.019 390.867 283.019 390.003C283.191 388.621 283.709 387.411 284.227 386.029C285.608 383.091 287.334 380.326 289.405 377.906C293.374 373.24 297.862 369.266 302.349 365.118C304.593 363.044 306.837 360.97 308.908 358.724C310.979 356.477 313.05 354.231 314.776 351.811C315.121 351.466 314.948 350.947 314.603 350.602C314.431 350.429 314.085 350.256 313.913 350.256C314.085 350.083 313.74 350.256 313.74 350.429ZM289.923 377.906L289.75 378.079L289.923 377.906ZM284.745 386.029C284.572 386.029 284.572 386.201 284.745 386.029C284.572 386.029 284.572 386.201 284.745 386.029ZM293.374 403.137C293.547 403.137 293.72 403.31 293.72 403.31C293.72 403.31 293.547 403.31 293.374 403.137Z" fill="#119C97"/>
<path d="M363.447 181.243C368.107 186.773 379.498 185.045 388.818 177.096C398.138 169.319 401.935 158.432 397.275 152.729C392.615 147.199 381.224 148.927 371.904 156.876C362.584 164.826 358.787 175.713 363.447 181.243Z" fill="#A8EEE4"/>
<path d="M329.101 201.808C331.862 204.573 337.903 203.018 342.39 198.352C347.05 193.686 348.431 187.81 345.67 185.045C342.908 182.28 336.867 183.835 332.38 188.501C327.893 192.995 326.339 199.043 329.101 201.808Z" fill="#A8EEE4"/>
<path d="M445.428 137.176C446.119 140.632 452.332 142.36 459.408 141.15C466.485 139.941 471.835 136.139 471.317 132.682C470.627 129.226 464.413 127.498 457.337 128.708C450.261 129.917 444.911 133.719 445.428 137.176Z" fill="#A8EEE4"/>
<path d="M411.945 141.496C413.499 144.433 417.814 144.952 421.611 142.878C425.408 140.804 427.306 136.83 425.753 133.892C424.199 130.954 419.885 130.435 416.088 132.509C412.291 134.583 410.392 138.558 411.945 141.496Z" fill="#A8EEE4"/>
<path d="M293.547 247.086C295.791 249.332 300.278 248.641 303.212 245.53C306.319 242.42 306.837 238.099 304.593 235.853C302.349 233.606 297.862 234.297 294.928 237.408C291.821 240.346 291.131 244.839 293.547 247.086Z" fill="#A8EEE4"/>
<path d="M314.431 219.089C315.466 220.126 317.537 219.781 318.918 218.398C320.299 217.016 320.644 214.942 319.608 213.905C318.573 212.868 316.502 213.214 315.121 214.596C313.74 215.979 313.395 218.053 314.431 219.089Z" fill="#A8EEE4"/>
<path d="M359.65 206.301C360.686 207.338 362.757 206.993 364.137 205.61C365.518 204.227 365.863 202.154 364.828 201.117C363.792 200.08 361.721 200.426 360.34 201.808C358.787 203.363 358.614 205.264 359.65 206.301Z" fill="#A8EEE4"/>
<path d="M414.189 159.296C414.707 160.505 416.433 160.851 417.986 159.987C419.539 159.296 420.402 157.74 419.885 156.531C419.367 155.321 417.641 154.975 416.088 155.839C414.534 156.703 413.671 158.086 414.189 159.296Z" fill="#A8EEE4"/>
<path d="M438.007 289.252C442.495 289.252 446.119 283.031 446.292 275.082C446.464 267.132 442.84 260.738 438.352 260.738C433.865 260.738 430.241 266.959 430.068 274.909C429.895 282.686 433.52 289.08 438.007 289.252Z" fill="#197967"/>
<path d="M598.863 241.901C602.66 239.655 602.66 232.224 598.518 225.484C594.548 218.744 588.162 215.115 584.193 217.362C580.395 219.608 580.395 227.039 584.538 233.779C588.68 240.519 595.066 244.148 598.863 241.901Z" fill="#197967"/>
<path d="M442.322 271.625C440.941 271.971 438.87 270.415 438.007 268.169C436.971 265.922 437.316 263.676 438.87 263.33C440.25 262.984 442.322 264.54 443.185 266.786C444.047 269.033 443.702 271.28 442.322 271.625Z" fill="#FEFEFE"/>
<path d="M442.667 275.427C441.804 275.427 440.941 274.909 440.941 274.045C440.941 273.181 441.459 272.49 442.322 272.49C443.185 272.49 444.048 273.008 444.048 273.872C444.22 274.563 443.53 275.255 442.667 275.427Z" fill="#FEFEFE"/>
<path d="M594.203 225.484C593.167 226.521 590.578 226.002 588.68 224.274C586.781 222.546 586.091 220.472 587.127 219.608C588.162 218.571 590.751 219.09 592.65 220.818C594.548 222.373 595.239 224.447 594.203 225.484Z" fill="#FEFEFE"/>
<path d="M596.102 228.595C595.411 229.113 594.376 228.94 594.03 228.249C593.513 227.558 593.858 226.694 594.548 226.175C595.239 225.657 596.274 225.829 596.619 226.521C597.137 227.212 596.792 228.076 596.102 228.595Z" fill="#FEFEFE"/>
<path d="M519.47 233.606C518.78 233.779 518.262 234.47 518.435 235.161C518.78 236.717 518.953 238.272 519.125 239.827V239.655C519.125 239.827 519.125 239.827 519.125 240C519.298 241.556 519.125 243.111 518.953 244.494C518.78 245.53 518.435 246.567 517.917 247.604C517.572 248.468 517.054 249.159 516.536 249.851C516.019 250.542 515.328 251.06 514.638 251.579C513.947 252.097 513.084 252.616 512.222 252.961C511.359 253.307 510.323 253.48 509.287 253.653C508.252 253.653 507.216 253.653 506.181 253.48C505.145 253.307 504.11 252.961 503.074 252.443C502.039 251.925 501.176 251.233 500.14 250.542C499.105 249.678 498.242 248.814 497.551 247.777C496.688 246.567 495.998 245.358 495.48 243.975C495.135 243.284 494.272 243.111 493.754 243.457C493.409 243.629 493.236 243.802 493.064 244.148C492.891 244.493 493.064 244.839 493.064 245.185C493.754 246.74 494.617 248.295 495.653 249.678C496.516 250.888 497.724 252.097 498.932 252.961C501.176 254.69 503.765 255.726 506.526 256.072C509.115 256.418 511.704 255.899 514.12 254.69C516.536 253.48 518.435 251.579 519.643 249.159C520.679 247.259 521.196 245.185 521.369 243.111C521.714 240.173 521.196 237.408 520.506 234.47C520.333 233.952 519.816 233.433 519.298 233.433C519.643 233.606 519.643 233.606 519.47 233.606ZM497.551 247.259C497.551 247.431 497.724 247.431 497.551 247.259C497.551 247.431 497.724 247.431 497.551 247.259ZM503.247 252.27C503.247 252.27 503.419 252.27 503.419 252.443C503.419 252.443 503.419 252.27 503.247 252.27Z" fill="#197967"/>
<path d="M541.562 223.583C541.217 223.583 540.872 223.929 540.699 224.101C540.526 224.274 540.354 224.793 540.526 225.138C540.872 226.175 541.217 227.039 541.389 228.076C541.562 228.94 541.735 229.804 541.735 230.668C541.735 231.878 541.735 233.261 541.562 234.47C541.389 235.507 541.044 236.371 540.699 237.235C540.354 238.099 539.836 238.791 539.146 239.655C538.628 240.346 537.938 240.864 537.247 241.383C536.557 241.901 535.866 242.247 535.003 242.593C534.313 242.765 533.45 242.938 532.587 243.111C531.724 243.111 531.034 243.111 530.171 242.938C529.308 242.765 528.618 242.42 527.755 242.074C526.892 241.556 526.029 241.037 525.338 240.519C524.475 239.655 523.612 238.791 522.922 237.754C522.232 236.717 521.541 235.68 521.023 234.47C520.678 233.779 519.815 233.606 519.298 233.952C518.607 234.297 518.435 234.989 518.78 235.68C520.161 238.791 522.232 241.728 525.166 243.629C526.374 244.321 527.582 245.012 528.963 245.358C529.653 245.53 530.343 245.703 531.034 245.703C531.724 245.703 532.415 245.703 533.105 245.703C535.694 245.53 538.11 244.148 540.009 242.42C541.044 241.556 541.735 240.346 542.425 239.136C542.77 238.445 543.115 237.754 543.288 237.235C543.633 236.544 543.806 235.68 543.806 234.816C544.151 233.261 543.978 231.705 543.978 230.323C543.806 228.422 543.288 226.694 542.598 224.793C542.425 224.447 542.425 224.101 542.08 223.929C541.907 223.756 541.562 223.756 541.389 223.756C541.735 223.583 541.735 223.583 541.562 223.583ZM525.683 240.692L525.856 240.864C525.856 240.692 525.683 240.692 525.683 240.692ZM528.1 242.247C528.1 242.247 528.272 242.247 528.1 242.247C528.1 242.247 528.272 242.247 528.1 242.247ZM535.521 242.42H535.349C535.349 242.593 535.521 242.42 535.521 242.42Z" fill="#197967"/>
<path d="M485.297 106.76C483.571 106.76 481.673 106.76 479.774 106.933C478.911 106.933 478.221 106.933 477.358 107.106C472.008 107.451 466.312 108.143 460.271 109.179C454.058 110.389 447.672 111.772 441.114 113.845C429.032 117.475 416.605 122.313 404.351 128.535C398.483 131.473 392.615 134.756 387.437 137.867C381.914 141.15 376.391 144.952 370.523 149.272C366.208 152.556 361.721 156.012 357.406 159.814C360.686 157.74 363.792 155.667 366.726 153.938C373.285 149.964 380.188 146.507 387.265 143.224C390.889 141.496 394.686 139.94 398.311 138.558C400.382 137.694 402.453 137.003 404.524 136.139C406.422 135.447 408.494 134.583 410.392 133.892C420.057 130.436 427.824 127.843 435.073 125.942C444.393 123.35 452.85 121.622 460.962 120.585C464.241 120.24 467.175 119.894 469.936 119.721C472.698 119.548 475.287 119.548 477.876 119.548C480.637 119.548 483.226 119.721 485.988 119.894C493.409 120.412 500.658 121.622 507.562 123.523C514.81 125.597 521.714 128.189 528.1 131.473C534.659 134.929 540.872 138.904 546.395 143.397C548.984 145.471 551.918 148.063 554.852 150.828C557.786 153.593 560.72 156.531 563.309 159.469C568.659 165.344 573.837 171.738 578.67 178.478C583.33 184.872 587.644 191.612 591.787 198.698C594.203 202.672 596.101 206.129 597.827 209.412C599.898 213.214 601.624 217.016 603.35 220.645C606.802 228.249 609.736 236.026 611.98 243.629C612.498 245.185 612.843 246.913 613.361 248.468C612.843 244.666 612.153 240.692 611.117 236.198C609.564 229.804 607.493 223.41 604.904 216.325C600.416 204.573 594.376 192.476 586.609 179.342C583.502 173.985 579.878 168.455 575.908 162.752C572.629 158.086 569.177 153.42 565.725 149.1C558.304 139.768 550.882 132.337 542.943 126.115C538.973 123.005 534.486 120.067 529.826 117.475C525.339 115.055 520.506 112.981 515.156 111.253C506.181 108.315 496.17 106.76 485.297 106.76Z" fill="#4ABBB6"/>
<path d="M132.519 203.537C132.001 203.709 131.656 204.055 131.311 204.401C130.965 204.919 130.965 205.437 131.138 205.956C131.656 208.375 132.174 210.622 132.519 212.869C133.037 215.288 133.382 217.707 133.727 220.127C133.727 219.954 133.727 219.954 133.727 219.781C134.417 225.138 134.935 230.323 134.935 235.68C134.935 238.272 134.763 241.037 134.763 243.63C134.59 246.395 134.245 249.16 133.9 251.925V251.579C133.554 253.998 133.209 256.245 132.691 258.664C132.174 261.084 131.656 263.503 130.965 265.923C129.585 270.761 128.031 275.6 126.133 280.266C125.615 281.303 125.27 282.513 124.752 283.55C124.58 283.723 124.752 284.068 124.925 284.241C125.097 284.414 125.443 284.241 125.615 284.068C127.859 279.229 129.93 274.391 131.656 269.379C133.382 264.54 134.935 259.529 135.971 254.344C137.006 249.332 137.869 244.148 138.387 238.964C138.905 233.779 138.905 228.595 138.56 223.41C138.387 220.3 138.042 217.189 137.524 214.078C137.006 210.968 136.316 207.684 135.453 204.573C135.108 203.709 134.417 203.018 133.554 203.018C132.864 203.364 132.691 203.364 132.519 203.537Z" fill="#4ABBB6"/>
<path d="M125.96 216.498C125.269 216.67 124.924 217.362 125.097 218.053C125.615 220.127 125.96 222.2 126.305 224.274C126.995 230.323 126.823 236.544 125.96 242.593C125.615 244.666 125.269 246.913 124.924 248.987C124.924 249.332 125.097 249.678 125.442 249.851C125.787 250.024 126.132 249.678 126.305 249.332C127.34 244.148 128.203 238.963 128.549 233.606C128.721 230.841 128.894 228.249 128.721 225.484C128.721 224.101 128.549 222.892 128.376 221.509C128.203 220.127 128.031 218.744 127.686 217.362C127.513 216.843 126.995 216.325 126.478 216.325C126.132 216.325 125.96 216.498 125.96 216.498ZM126.132 223.929V224.101C126.132 224.101 126.132 224.101 126.132 223.929Z" fill="#4ABBB6"/>
<path d="M41.3899 241.21C40.8721 241.383 40.5269 241.728 40.1817 242.074C39.8365 242.592 39.8365 243.111 40.0091 243.629C40.1817 244.321 40.6995 244.839 41.3899 245.012C43.1158 245.53 44.6691 246.222 46.2224 246.913C48.6387 247.95 51.055 249.159 53.2987 250.369C55.715 251.579 57.9587 252.961 60.2024 254.344C62.4461 255.726 64.6898 257.109 66.9335 258.664C69.1772 260.22 71.4209 261.775 73.492 263.503L73.3194 263.33C76.5987 265.75 79.7054 268.342 82.6394 271.107C85.7461 273.872 88.8528 276.637 91.9594 279.402C92.132 279.575 92.4772 279.575 92.6498 279.402C92.8224 279.229 92.8224 278.884 92.6498 278.711C89.0254 275.254 85.4009 271.971 81.7765 268.688C78.152 265.404 74.355 262.121 70.558 259.01C66.7609 255.899 62.7913 252.961 58.8217 250.196C54.6795 247.431 50.3647 245.012 46.0499 242.938C45.0143 242.42 43.9787 241.901 42.7706 241.383C42.7706 241.383 42.598 241.383 42.4254 241.21C42.2528 241.21 42.0802 241.21 41.9076 241.21C41.735 241.21 41.5625 241.21 41.3899 241.21Z" fill="#4ABBB6"/>
</g>
<defs>
<filter id="filter0_d_232_114" x="0.639652" y="69" width="631.216" height="417.721" filterUnits="userSpaceOnUse" color-interpolation-filters="sRGB">
<feFlood flood-opacity="0" result="BackgroundImageFix"/>
<feColorMatrix in="SourceAlpha" type="matrix" values="0 0 0 0 0 0 0 0 0 0 0 0 0 0 0 0 0 0 127 0" result="hardAlpha"/>
<feOffset dy="4.36035"/>
<feGaussianBlur stdDeviation="2.18017"/>
<feComposite in2="hardAlpha" operator="out"/>
<feColorMatrix type="matrix" values="0 0 0 0 0 0 0 0 0 0 0 0 0 0 0 0 0 0 0.25 0"/>
<feBlend mode="normal" in2="BackgroundImageFix" result="effect1_dropShadow_232_114"/>
<feBlend mode="normal" in="SourceGraphic" in2="effect1_dropShadow_232_114" result="shape"/>
</filter>
<filter id="filter1_d_232_114" x="23.0458" y="84.1213" width="606.761" height="401.537" filterUnits="userSpaceOnUse" color-interpolation-filters="sRGB">
<feFlood flood-opacity="0" result="BackgroundImageFix"/>
<feColorMatrix in="SourceAlpha" type="matrix" values="0 0 0 0 0 0 0 0 0 0 0 0 0 0 0 0 0 0 127 0" result="hardAlpha"/>
<feOffset dy="4.19141"/>
<feGaussianBlur stdDeviation="2.09571"/>
<feComposite in2="hardAlpha" operator="out"/>
<feColorMatrix type="matrix" values="0 0 0 0 0 0 0 0 0 0 0 0 0 0 0 0 0 0 0.25 0"/>
<feBlend mode="normal" in2="BackgroundImageFix" result="effect1_dropShadow_232_114"/>
<feBlend mode="normal" in="SourceGraphic" in2="effect1_dropShadow_232_114" result="shape"/>
</filter>
<clipPath id="clip0_232_114">
<rect width="33.221" height="33.221" fill="white" transform="translate(627.716 101.679)"/>
</clipPath>
<clipPath id="clip1_232_114">
<rect width="39.4444" height="39.4444" fill="white" transform="translate(558.469 46.4568)"/>
</clipPath>
<clipPath id="clip2_232_114">
<rect width="62.2346" height="62.2346" fill="white" transform="translate(602.296)"/>
</clipPath>
<clipPath id="clip3_232_114">
<rect width="622.496" height="409" fill="white" transform="translate(5 69)"/>
</clipPath>
<clipPath id="clip4_232_114">
<rect width="598.378" height="393.154" fill="white" transform="translate(27.2372 84.1213)"/>
</clipPath>
</defs>
</svg>
