<svg width="42" height="42" viewBox="0 0 42 42" fill="none" xmlns="http://www.w3.org/2000/svg">
<path d="M21 31.5C21.4641 31.5 21.9092 31.3156 22.2374 30.9874C22.5656 30.6592 22.75 30.2141 22.75 29.75L22.75 26.25C22.75 25.7859 22.5656 25.3408 22.2374 25.0126C21.9092 24.6844 21.4641 24.5 21 24.5C20.5359 24.5 20.0908 24.6844 19.7626 25.0126C19.4344 25.3408 19.25 25.7859 19.25 26.25L19.25 29.75C19.25 30.2141 19.4344 30.6592 19.7626 30.9874C20.0908 31.3156 20.5359 31.5 21 31.5ZM21 38.5C24.2489 38.5 27.3647 37.2094 29.6621 34.9121C31.9594 32.6147 33.25 29.4989 33.25 26.25L33.25 15.75C33.25 12.5011 31.9594 9.38526 29.6621 7.08794C27.3647 4.79062 24.2489 3.5 21 3.5C17.7511 3.5 14.6353 4.79062 12.3379 7.08794C10.0406 9.38526 8.75 12.5011 8.75 15.75L8.75 26.25C8.75 29.4989 10.0406 32.6147 12.3379 34.9121C14.6353 37.2094 17.7511 38.5 21 38.5ZM12.25 15.75C12.25 13.4294 13.1719 11.2038 14.8128 9.56282C16.4538 7.92187 18.6794 7 21 7C23.3206 7 25.5462 7.92187 27.1872 9.56282C28.8281 11.2038 29.75 13.4294 29.75 15.75L29.75 26.25C29.75 28.5706 28.8281 30.7962 27.1872 32.4372C25.5462 34.0781 23.3206 35 21 35C18.6794 35 16.4538 34.0781 14.8128 32.4372C13.1719 30.7962 12.25 28.5706 12.25 26.25L12.25 15.75Z" fill="#5DD2CE"/>
</svg>
