<svg width="308" height="323" viewBox="0 0 308 323" fill="none" xmlns="http://www.w3.org/2000/svg">
<g clip-path="url(#clip0_205_26)">
<path d="M83.5557 67.6348C85.1854 62.8894 82.597 57.7125 77.8515 56.1307C73.1061 54.453 67.9772 57.0414 66.3474 61.7869C64.7177 66.5323 67.3061 71.7092 72.0515 73.291C76.797 74.9208 81.9739 72.3803 83.5557 67.6348Z" fill="#5DA5A2"/>
<path d="M76.1259 58.4793C75.5507 57.3768 73.5374 57.3289 71.6201 58.3355C69.7027 59.3421 68.6002 61.0677 69.2234 62.1702C69.7986 63.2727 71.8597 63.3206 73.7771 62.2661C75.6465 61.2595 76.7011 59.5339 76.1259 58.4793Z" fill="#FEFEFE"/>
<path d="M68.9359 63.1767C68.6003 62.985 68.121 63.1767 67.8334 63.6081C67.5937 64.0395 67.6417 64.5668 67.9772 64.7586C68.3127 64.9503 68.7921 64.7586 69.0797 64.3272C69.3673 63.8957 69.2714 63.4164 68.9359 63.1767Z" fill="#FEFEFE"/>
</g>
<g clip-path="url(#clip1_205_26)">
<path d="M49.001 39.6902C50.9361 34.0558 47.8627 27.9091 42.2283 26.031C36.5938 24.039 30.5041 27.1123 28.569 32.7468C26.6339 38.3812 29.7073 44.5279 35.3417 46.406C40.9762 48.3411 47.1228 45.3247 49.001 39.6902Z" fill="#5DA5A2"/>
<path d="M40.1794 28.8196C39.4965 27.5106 37.1061 27.4537 34.8295 28.6489C32.553 29.844 31.244 31.8929 31.9839 33.2019C32.6668 34.511 35.1141 34.5679 37.3907 33.3158C39.6103 32.1206 40.8624 30.0717 40.1794 28.8196Z" fill="#FEFEFE"/>
<path d="M31.6424 34.3972C31.244 34.1696 30.6749 34.3972 30.3334 34.9094C30.0488 35.4217 30.1057 36.0477 30.5041 36.2754C30.9025 36.503 31.4716 36.2754 31.8131 35.7631C32.1546 35.2509 32.0408 34.6818 31.6424 34.3972Z" fill="#FEFEFE"/>
</g>
<g clip-path="url(#clip2_205_26)">
<path d="M85.1023 22.539C88.1554 13.6491 83.3063 3.95107 74.4164 0.987765C65.5265 -2.15513 55.9183 2.69391 52.8652 11.5838C49.8121 20.4737 54.6611 30.1718 63.551 33.1351C72.4409 36.1882 82.139 31.4289 85.1023 22.539Z" fill="#5DA5A2"/>
<path d="M71.1838 5.38796C70.1062 3.32263 66.3348 3.23283 62.7429 5.11857C59.151 7.00431 57.0857 10.237 58.253 12.3023C59.3306 14.3677 63.1919 14.4575 66.7837 12.4819C70.2858 10.5962 72.2614 7.3635 71.1838 5.38796Z" fill="#FEFEFE"/>
<path d="M57.7141 14.1881C57.0855 13.8289 56.1876 14.1881 55.6488 14.9962C55.1998 15.8044 55.2896 16.7922 55.9182 17.1514C56.5467 17.5105 57.4447 17.1514 57.9835 16.3432C58.5223 15.535 58.3427 14.637 57.7141 14.1881Z" fill="#FEFEFE"/>
</g>
<g clip-path="url(#clip3_205_26)">
<path d="M46.2773 88C44.3491 88 42.4209 88.3615 40.4927 88.9641C37.1183 90.1692 33.744 92.3385 30.2491 95.8333C27.4773 98.4846 24.9465 101.618 21.9337 105.956C20.9696 107.403 19.885 108.969 18.6799 111.018C17.4747 112.946 16.2696 114.874 15.185 116.682C12.6542 121.141 10.3645 125.962 8.31575 130.903C4.57985 140.182 2.04908 150.185 0.723442 160.428C-0.361174 170.19 -0.240661 180.313 1.20549 190.556C2.53113 200.318 5.30293 210.321 9.15934 220.323C11.0875 225.144 13.2568 229.964 15.7875 234.664C16.5106 236.11 17.3542 237.556 18.1978 239.003L18.4388 239.364L18.9209 240.208C19.885 241.895 20.7286 243.462 21.6927 245.149C23.9824 249.005 26.1516 252.38 28.4414 255.392C31.0927 259.008 33.744 261.78 36.6363 264.069C39.8901 266.721 43.2645 268.528 46.6388 269.372C48.326 269.854 50.1337 270.095 51.9414 270.095H52.3029C54.4722 270.095 56.6414 269.613 58.6901 269.251H58.9311C60.3773 269.01 61.7029 268.769 63.0286 268.528H63.2696C64.1132 268.408 64.9568 268.408 65.5593 268.408C66.2824 268.408 66.885 268.408 67.4875 268.528C68.4516 268.649 69.2952 268.89 70.1388 269.251C70.8619 269.613 71.585 269.974 72.1875 270.456C72.6696 270.818 73.0311 271.18 73.3927 271.541C73.7542 272.023 73.9952 272.626 74.2363 273.228C74.3568 273.71 74.4773 274.192 74.4773 274.674C74.4773 274.915 74.4773 275.277 74.4773 275.518C74.3568 277.567 73.9952 279.615 73.6337 281.544V281.664C73.2722 283.592 72.9106 285.521 72.7901 287.569C72.7901 288.533 72.7901 289.377 72.9106 290.1C73.0311 291.185 73.3927 292.149 73.7542 292.872C74.4773 294.68 75.6824 296.367 77.3696 298.174C78.6952 299.621 80.3824 301.067 82.6722 302.513C84.6004 303.718 86.6491 304.923 89.1798 306.008C93.8799 308.177 98.8209 309.744 103.039 310.949C105.088 311.551 107.016 312.033 109.064 312.636C111.836 313.359 115.09 314.203 118.344 315.046C119.911 315.408 121.357 315.769 122.923 316.131C123.526 316.131 124.129 316.251 124.852 316.251C127.503 316.492 130.034 316.733 132.926 317.095L133.529 317.215H133.89C136.18 317.456 138.59 317.818 141 317.938C142.567 318.059 143.893 318.18 145.218 318.18C145.7 318.18 146.303 318.18 146.785 318.18C147.508 318.18 148.352 318.18 149.075 318.18C164.621 317.938 179.685 315.649 194.026 311.431C197.4 310.467 200.654 309.382 204.029 308.177C207.282 306.972 210.536 305.646 213.429 304.441C216.562 302.995 219.695 301.549 222.467 300.103C225.359 298.656 228.252 296.969 231.023 295.282C235.482 292.51 239.7 289.618 243.557 286.485C247.654 283.231 251.27 279.856 254.644 276.482C257.054 273.951 259.103 271.541 260.911 269.131C261.995 267.685 262.839 266.48 263.562 265.274C264.405 263.949 265.249 262.623 265.972 261.297C267.177 259.008 268.382 256.718 269.226 254.428C269.708 253.103 270.19 251.897 270.552 250.692L270.672 250.331L270.793 250.09L270.552 249.969L270.19 249.849C268.864 249.728 267.539 249.487 266.093 249.126L266.334 249.246C264.164 248.644 262.236 248.041 260.67 247.438C258.982 246.836 257.416 245.992 255.729 245.149C252.475 243.341 249.341 241.051 246.449 238.279L246.57 238.521C243.195 235.146 240.062 231.049 237.17 226.469C234.759 222.492 232.711 218.033 230.782 213.092C229.216 209.115 227.77 204.656 226.203 198.872V198.992L225.841 197.546L224.154 191.521C221.744 182.723 219.334 173.564 215.718 164.767C213.549 159.464 211.139 154.885 208.367 150.787C205.836 147.051 202.944 143.677 199.57 140.785C202.823 135.964 206.921 131.505 211.5 127.287H211.38C217.285 122.105 224.034 117.526 231.264 113.79C238.254 110.295 245.364 107.644 252.354 106.197H252.595C257.898 105.113 263.321 104.51 268.744 104.51C270.311 104.51 271.877 104.51 273.323 104.631C281.639 105.113 290.316 106.921 299.354 109.933L299.113 109.813C301.403 110.656 303.452 111.379 305.259 112.103C305.38 112.103 305.38 112.103 305.5 112.223L305.862 112.464L306.223 112.705C306.344 112.826 306.464 112.826 306.706 112.826C306.826 112.826 307.067 112.826 307.188 112.705C307.549 112.585 307.79 112.344 307.911 111.982C308.031 111.621 308.031 111.259 307.911 111.018C307.79 110.656 307.549 110.536 307.188 110.295C294.534 102.703 280.434 97.641 266.093 95.5923C261.031 94.8692 255.849 94.5077 250.667 94.5077C248.618 94.5077 246.57 94.6282 244.4 94.7487C237.29 95.1103 230.059 96.4359 222.949 98.3641C216.08 100.292 209.211 103.064 202.462 106.679C195.472 110.415 189.206 114.754 183.903 119.333C180.529 122.226 177.395 125.359 174.744 128.613C170.406 127.287 165.464 126.564 159.68 126.564C158.475 126.564 157.39 126.564 156.185 126.685C151.123 126.926 146.062 127.649 141.241 128.251C139.072 128.613 136.541 128.854 134.011 129.215H134.131C130.154 129.577 127.021 129.818 124.37 129.818C121.959 129.818 119.79 129.697 117.741 129.336L117.982 129.456L117.741 129.336C114.005 128.733 110.27 127.649 106.654 126.082C102.798 124.395 98.9414 122.226 94.4824 119.213C92.3132 117.767 90.144 116.2 88.4568 114.995L88.0952 114.754C86.4081 113.549 84.8414 112.344 83.1542 111.018C80.8645 109.21 78.6952 107.282 76.6465 105.354L76.4055 105.113C75.6824 104.39 74.8388 103.787 74.1157 103.064C70.9824 100.292 67.367 97.159 63.5106 94.5077C59.5337 91.7359 55.7978 89.8077 52.1824 88.8436C50.1337 88.241 48.2055 88 46.2773 88Z" fill="#47AFAB"/>
<path d="M47.6028 97.7616C45.9157 97.7616 44.108 98.1231 42.4208 98.7257C39.408 99.8103 36.3951 101.739 33.2618 104.872C30.8515 107.282 28.4413 110.054 25.79 113.91C24.8259 115.236 23.8618 116.682 22.7772 118.369C21.6926 120.177 20.608 121.864 19.6439 123.431C17.3541 127.408 15.3054 131.746 13.4977 136.205C10.1233 144.521 7.8336 153.439 6.74898 162.597C5.78488 171.274 5.90539 180.313 7.23104 189.592C8.43616 198.39 10.8464 207.308 14.3413 216.226C16.0285 220.564 18.0772 224.903 20.2464 229.121C20.9695 230.446 21.6926 231.651 22.2951 232.977L22.4157 233.339L22.8977 234.182C23.7413 235.628 24.5849 237.074 25.4285 238.521C27.4772 241.895 29.4054 244.908 31.4541 247.68C33.8644 250.813 36.2746 253.464 38.6849 255.513C40.2515 256.839 41.8182 257.803 43.5054 258.646L42.9028 258.044L42.3003 257.441C40.7336 255.995 39.1669 254.428 37.8413 252.741C35.3105 249.728 33.0208 246.354 30.49 242.136C25.308 233.339 21.331 224.421 18.4387 215.503C16.9926 210.803 15.7874 206.223 14.9439 201.644C14.1003 196.944 13.4977 192.244 13.1362 187.785C12.7746 182.964 12.7746 178.144 13.0157 173.323C13.2567 168.503 13.8592 163.562 14.5823 158.741C14.9439 156.451 15.3054 154.523 15.6669 152.836C16.0285 151.39 16.39 149.944 16.7515 148.497C17.5951 145.485 18.5592 142.351 19.6439 139.339C20.849 136.085 22.1746 133.072 23.5003 130.3C25.0669 127.046 26.7541 124.274 28.4413 121.744C30.3695 118.851 32.2977 116.562 34.3464 114.513C35.5515 113.308 36.6362 112.344 37.7208 111.5C38.9259 110.536 40.131 109.813 41.2157 109.09C43.8669 107.644 46.3977 106.68 49.049 106.318C50.1336 106.197 51.2182 106.077 52.3028 106.077C52.6644 106.077 52.9054 106.077 53.2669 106.077C54.7131 106.197 56.2798 106.318 57.7259 106.68C58.5695 106.921 59.4131 107.162 60.1362 107.403C60.8592 107.644 61.5823 107.885 62.4259 108.367C63.9926 109.09 65.5592 109.933 67.2464 110.897C69.8977 112.585 72.549 114.392 75.0798 116.2L75.3208 116.321L76.5259 117.164C80.1413 119.695 83.5157 121.985 86.89 124.154C90.8669 126.685 94.3618 128.613 97.6157 130.059C95.2054 128.733 92.7952 127.287 90.1439 125.48C88.5772 124.395 86.89 123.19 84.8413 121.623L84.4798 121.382C83.1541 120.418 81.5875 119.213 80.1413 118.008C78.2131 116.441 76.4054 114.874 74.8387 113.428L74.5977 113.308L74.3567 113.067C73.6336 112.464 73.031 111.862 72.308 111.259C69.5362 108.849 66.2823 105.956 62.7874 103.667C59.1721 101.136 55.9182 99.4488 52.6644 98.6052C50.9772 98.0026 49.29 97.7616 47.6028 97.7616Z" fill="#2AA09A"/>
<path d="M270.31 250.09L269.949 249.969C268.623 249.849 267.298 249.608 265.851 249.246L266.092 249.367C263.682 248.643 261.875 248.041 260.428 247.438C258.741 246.836 257.174 245.992 255.487 245.149C252.233 243.341 249.1 241.051 246.208 238.279L246.328 238.52C242.954 235.026 239.821 231.049 237.049 226.469C234.639 222.492 232.59 218.154 230.662 213.092C229.095 209.115 227.649 204.777 226.082 198.872L225.962 198.992L225.721 197.546L224.033 191.52C221.623 182.602 219.213 173.443 215.598 164.767C213.428 159.464 211.018 154.884 208.246 150.787C207.523 149.702 206.68 148.618 205.836 147.533C207.041 149.461 208.005 151.39 208.849 153.438C210.898 158.259 212.344 163.441 213.549 168.502C214.874 174.287 215.839 180.192 216.682 186.097C217.526 191.641 218.49 197.184 219.695 202.608C220.177 204.777 220.9 206.946 221.503 209.115C222.346 211.646 223.19 214.056 224.154 216.467C226.082 221.528 228.372 226.469 231.023 231.29C231.023 231.29 231.023 231.29 231.023 231.169C234.759 237.918 239.218 244.426 244.641 250.09C245.605 251.054 246.569 251.897 247.533 252.861C246.81 253.946 245.967 255.031 245.244 256.115C244.882 256.718 244.521 257.2 244.039 257.802C243.436 258.526 242.833 259.128 242.11 259.851C240.303 261.779 238.495 263.587 236.687 265.395C233.313 268.649 229.818 271.661 226.082 274.433C218.49 280.338 210.416 285.4 201.859 289.618C193.182 293.956 184.023 297.572 174.744 300.223C170.164 301.549 165.464 302.633 160.885 303.477C158.475 303.838 156.185 304.32 153.774 304.561C151.846 304.802 149.798 305.043 147.869 305.164C141.121 305.767 134.251 306.249 127.503 306.369C123.887 306.369 120.151 306.369 116.536 306.128C112.8 305.887 109.185 305.526 105.449 305.043C101.833 304.441 98.3386 303.718 94.8437 302.633C91.5899 301.669 88.336 300.343 85.3232 298.656C82.4309 297.09 79.6591 295.161 77.2489 292.872C76.0437 291.787 74.9591 290.582 73.995 289.256C73.6335 288.774 73.2719 288.172 72.9104 287.69C72.9104 288.533 72.9104 289.256 73.0309 289.979C73.1514 291.064 73.513 292.028 73.8745 292.751C74.5976 294.559 75.8027 296.246 77.4899 298.054C78.936 299.5 80.6232 300.946 82.7924 302.392C84.7207 303.597 86.7694 304.802 89.3001 305.887C94.0001 308.056 98.9412 309.623 103.159 310.828C105.208 311.431 107.136 311.913 109.185 312.515C112.077 313.359 115.331 314.202 118.464 314.926C120.031 315.287 121.477 315.649 123.044 316.01C123.646 316.01 124.249 316.131 124.972 316.131C127.623 316.372 130.275 316.613 133.046 316.974L133.649 317.095H134.01H134.372C136.662 317.336 138.951 317.577 141.241 317.818C142.928 317.938 144.254 318.059 145.459 318.059C145.941 318.059 146.544 318.059 147.026 318.059C147.749 318.059 148.472 318.059 149.316 318.059C164.862 317.818 180.046 315.528 194.387 311.31C197.641 310.346 201.016 309.261 204.39 308.056C207.764 306.851 210.898 305.526 213.79 304.32C216.923 302.995 219.936 301.549 222.828 299.982C225.721 298.536 228.613 296.849 231.385 295.161C235.844 292.39 240.062 289.497 243.918 286.364C248.016 283.11 251.631 279.736 255.005 276.361C257.416 273.951 259.464 271.42 261.272 269.01C262.357 267.564 263.2 266.359 263.923 265.154C264.767 263.828 265.61 262.502 266.333 261.177C267.539 258.887 268.744 256.597 269.587 254.308C270.19 252.982 270.551 251.777 270.913 250.572L271.033 250.21L271.154 249.969L270.31 250.09Z" fill="#47AFAB"/>
<path d="M59.413 119.212H59.2925C59.172 119.212 59.0514 119.212 58.9309 119.212H58.6899C58.5694 119.212 58.3284 119.212 58.2079 119.333H58.0873C57.6053 119.453 57.0027 119.574 56.5207 119.694C55.7976 119.935 55.0745 120.177 54.1104 120.659C52.4232 121.382 50.8566 122.346 49.4104 123.43C47.8438 124.635 46.3976 125.961 45.1925 126.925C43.8668 128.13 42.6617 129.456 41.6976 130.541C40.4925 131.866 39.5284 133.071 38.6848 134.277C37.8412 135.361 36.8771 136.687 35.913 138.253C34.3463 140.664 32.9002 143.435 31.695 146.207C30.4899 149.1 29.4053 151.992 28.5617 155.125C27.8386 157.897 27.1156 160.91 26.6335 164.164C26.1515 166.935 25.9104 169.948 25.6694 173.564C25.4284 176.697 25.4284 179.83 25.5489 182.964C25.7899 190.797 26.8745 198.992 28.6822 207.187C28.6822 207.307 28.9232 207.428 29.0438 207.428C29.2848 207.307 29.4053 207.187 29.4053 206.946C29.1643 206.102 29.0438 205.259 28.9232 204.415C28.0797 199.956 27.4771 195.497 27.3566 191.279C27.2361 188.748 27.1156 186.459 27.2361 184.41C27.2361 182 27.3566 179.83 27.4771 177.661C27.7181 174.287 28.2002 170.671 29.0438 166.574C29.7668 162.959 30.7309 159.464 31.8156 155.969C32.9002 152.835 33.9848 150.184 35.3104 147.533C36.5156 145.002 37.9617 142.471 39.6489 140.061C40.854 138.374 42.1797 136.687 43.5053 135.12C44.9514 133.553 46.5181 131.987 48.3258 130.42L48.4463 130.3C50.9771 128.251 53.6284 126.564 56.4002 125.118C57.0027 124.877 57.6053 124.635 58.2079 124.274L58.4489 124.153L59.2925 123.792H59.413C59.895 123.551 60.2566 123.43 60.4976 123.189C60.7386 123.069 60.9797 122.948 61.2207 122.707C61.5822 122.346 61.8232 121.743 61.7027 121.261C61.3412 120.056 60.4976 119.212 59.413 119.212Z" fill="#1C8D8A"/>
<path d="M208.125 217.913C207.884 217.913 207.764 217.913 207.523 218.033C205.474 218.636 204.751 222.492 206.077 226.71C207.161 230.446 209.451 233.218 211.5 233.218C211.741 233.218 211.861 233.218 212.102 233.097C212.705 232.977 213.187 232.495 213.548 231.892C214.513 230.205 214.513 227.433 213.669 224.541C212.343 220.685 210.054 217.913 208.125 217.913Z" fill="#A8EEE4"/>
<path d="M196.316 204.174C196.075 204.174 195.954 204.174 195.713 204.295C195.111 204.415 194.629 204.897 194.267 205.62C193.665 206.825 193.544 208.513 194.026 210.2C194.749 212.61 196.436 214.297 198.003 214.297C198.244 214.297 198.365 214.297 198.606 214.177C199.449 213.936 200.052 213.213 200.413 212.007C200.775 210.923 200.654 209.597 200.293 208.272C199.69 205.861 198.003 204.174 196.316 204.174Z" fill="#A8EEE4"/>
<path d="M198.967 169.467C198.846 169.467 198.726 169.467 198.485 169.467C195.11 169.949 193.062 175.974 194.026 182.964C194.99 189.592 198.244 194.774 201.618 194.774C201.738 194.774 201.859 194.774 202.1 194.774C203.787 194.533 205.113 192.967 205.956 190.436C206.8 187.905 207.041 184.651 206.559 181.277C205.595 174.649 202.221 169.467 198.967 169.467Z" fill="#A8EEE4"/>
<path d="M228.613 245.39C228.493 245.39 228.252 245.39 228.131 245.511C227.769 245.631 227.649 246.113 227.528 246.595C227.528 247.077 227.649 247.68 227.89 248.162C228.372 249.005 229.095 249.487 229.698 249.487C229.818 249.487 230.059 249.487 230.18 249.367C230.421 249.246 230.541 249.005 230.662 248.764C230.782 248.162 230.662 247.439 230.3 246.836C229.939 245.872 229.216 245.39 228.613 245.39Z" fill="#A8EEE4"/>
<path d="M226.324 229.964C226.083 229.964 225.842 230.085 225.601 230.205C225.239 230.446 224.878 230.808 224.757 231.29C224.516 232.254 224.636 233.459 225.239 234.544C225.962 235.869 227.167 236.833 228.252 236.833C228.493 236.833 228.734 236.713 228.975 236.592C229.336 236.351 229.698 235.99 229.819 235.508C230.06 234.544 229.939 233.459 229.337 232.254C228.493 230.808 227.288 229.964 226.324 229.964Z" fill="#A8EEE4"/>
<path d="M213.79 202.487C213.669 202.487 213.549 202.487 213.428 202.487C213.067 202.608 212.705 202.849 212.585 203.21C212.223 203.933 212.103 205.018 212.464 205.982C212.946 207.428 213.91 208.513 214.875 208.513C214.995 208.513 215.116 208.513 215.236 208.513C215.598 208.392 215.959 208.151 216.08 207.79C216.441 207.067 216.562 205.982 216.2 205.018C215.839 203.572 214.754 202.487 213.79 202.487Z" fill="#A8EEE4"/>
<path d="M192.701 158.621C192.58 158.621 192.46 158.621 192.46 158.621C192.098 158.741 191.737 159.103 191.616 159.585C191.496 160.067 191.496 160.669 191.616 161.272C191.978 162.357 192.701 163.08 193.424 163.08C193.544 163.08 193.665 163.08 193.665 163.08C193.906 162.959 194.147 162.839 194.267 162.477C194.508 161.995 194.629 161.151 194.388 160.428C194.267 159.464 193.424 158.621 192.701 158.621Z" fill="#A8EEE4"/>
<path d="M41.8178 239.967C43.8665 242.98 49.4101 242.739 54.2306 239.485C58.9306 236.231 61.0998 231.049 59.0511 228.036C57.0024 225.023 51.4588 225.264 46.6383 228.518C41.8178 231.893 39.6486 236.954 41.8178 239.967Z" fill="#00362C"/>
<path d="M125.816 293.956C129.431 294.559 133.046 290.341 134.011 284.677C134.854 279.013 132.685 273.951 129.07 273.349C125.454 272.746 121.839 276.964 120.875 282.628C120.031 288.292 122.2 293.474 125.816 293.956Z" fill="#00362C"/>
<path d="M130.877 282.508C131.721 282.387 132.082 280.7 131.721 279.013C131.359 277.205 130.395 275.879 129.551 276.12C128.708 276.241 128.346 277.928 128.708 279.615C129.069 281.423 130.033 282.628 130.877 282.508Z" fill="#FEFEFE"/>
<path d="M131.118 285.52C131.6 285.52 132.082 284.918 132.082 284.315C132.082 283.713 131.6 283.11 131.118 283.11C130.636 283.11 130.154 283.592 130.154 284.315C130.154 285.038 130.515 285.52 131.118 285.52Z" fill="#FEFEFE"/>
<path d="M53.99 235.508C54.7131 235.99 56.0387 235.146 57.1233 233.58C58.0874 232.013 58.3285 230.446 57.6054 229.964C56.8823 229.482 55.5567 230.326 54.4721 231.892C53.508 233.459 53.2669 235.026 53.99 235.508Z" fill="#FEFEFE"/>
<path d="M52.0613 237.797C52.4228 238.159 53.1459 238.038 53.6279 237.556C54.11 237.074 54.11 236.472 53.7484 235.99C53.3869 235.628 52.6638 235.749 52.1818 236.231C51.6997 236.713 51.5792 237.436 52.0613 237.797Z" fill="#FEFEFE"/>
<path d="M91.711 259.249C91.1085 259.008 90.3854 259.249 90.1444 259.972C90.0239 260.213 89.9033 260.454 89.7828 260.695C89.5418 261.056 89.3008 261.418 89.0598 261.659C88.8187 261.9 88.5777 262.02 88.3367 262.141C88.0957 262.261 87.8546 262.382 87.6136 262.382C87.3726 262.382 87.1316 262.502 86.8905 262.502C86.6495 262.502 86.4085 262.502 86.1674 262.382C85.9264 262.261 85.6854 262.141 85.3239 262.02C85.0828 261.9 84.8418 261.659 84.6008 261.418C84.3598 261.177 84.1187 260.936 83.9982 260.574C83.8777 260.333 83.7572 259.972 83.6367 259.61C83.5162 259.249 83.5162 258.887 83.5162 258.405C83.5162 257.923 83.6367 257.441 83.7572 256.959C83.7572 257.079 83.7572 257.079 83.7572 257.2C83.8777 256.838 83.8777 256.597 83.7572 256.236C83.7572 256.115 83.6367 256.115 83.6367 255.995C83.6367 255.874 83.5162 255.874 83.5162 255.754C83.1546 255.272 82.311 255.151 81.829 255.513C81.4675 255.754 81.1059 256.115 80.7444 256.356C80.2623 256.597 79.7803 256.838 79.2982 256.959C78.9367 257.079 78.4546 257.079 78.0931 257.079C77.7316 257.079 77.4905 257.079 77.129 256.959C76.888 256.838 76.6469 256.838 76.4059 256.718C76.1649 256.597 76.0444 256.477 75.9239 256.356C75.8033 256.236 75.6828 256.115 75.5623 255.874C75.4418 255.754 75.4418 255.513 75.3213 255.272C75.3213 255.031 75.2008 254.79 75.2008 254.669C75.2008 254.308 75.3213 254.067 75.3213 253.826C75.4418 253.343 75.6828 252.861 75.9239 252.5C76.0444 252.259 76.1649 252.138 76.2854 251.897C76.6469 251.295 76.6469 250.572 76.0444 250.21C75.8033 250.09 75.5623 249.969 75.3213 249.969C74.9598 249.969 74.5982 250.09 74.3572 250.451C73.8751 251.174 73.3931 252.018 73.1521 252.861C72.911 253.705 72.7905 254.428 72.7905 255.272C72.911 256.597 73.6341 257.923 74.7187 258.767C75.9239 259.61 77.37 259.851 78.6957 259.731C79.4187 259.61 80.1418 259.49 80.8649 259.128C80.9854 259.128 80.9854 259.008 81.1059 259.008V259.128C81.1059 259.851 81.3469 260.695 81.7085 261.418C82.311 262.864 83.5162 263.949 84.8418 264.551C86.1675 265.154 87.7341 265.154 89.0598 264.551C90.6264 263.949 91.8315 262.382 92.4341 260.815C92.6751 260.333 92.3136 259.49 91.711 259.249Z" fill="#00362C"/>
<path d="M284.893 242.739C282.121 243.1 279.349 243.944 276.577 245.269C274.77 246.233 272.962 247.318 271.275 248.764C271.154 248.885 271.034 249.005 271.034 249.005C269.949 250.21 268.865 251.416 267.9 252.621C266.575 254.428 265.249 256.236 263.923 258.164C262.598 259.972 261.152 261.9 259.706 263.587C256.693 267.203 253.559 270.698 250.065 273.831C246.57 277.085 242.954 280.218 239.218 283.11C235.482 285.882 231.506 288.533 227.529 290.944C219.213 295.885 210.536 300.223 201.498 303.718C197.039 305.405 192.339 306.972 187.759 308.298C185.47 308.9 183.3 309.503 181.011 310.105C178.6 310.708 176.19 311.19 173.78 311.672C168.839 312.636 163.777 313.6 158.716 314.203C153.654 314.926 148.593 315.408 143.531 315.649C142.206 315.769 140.88 315.769 139.554 315.769C138.47 315.769 137.265 315.89 136.18 315.89C133.649 315.89 131.118 315.649 128.588 315.408C123.767 314.926 119.067 314.203 114.247 314.082C115.572 314.444 117.018 314.805 118.344 315.046C125.334 316.733 132.565 318.18 139.916 319.385C154.377 321.674 169.08 322.88 183.782 322.88H184.144C198.726 322.88 213.429 321.674 227.529 319.144C237.531 317.457 247.052 315.046 255.729 312.033C266.093 308.539 274.649 304.321 282.241 299.259C286.339 296.487 289.954 293.474 293.208 290.221C296.462 286.846 299.234 283.11 301.282 279.133C303.452 275.036 304.898 270.577 305.621 265.877C306.344 260.574 305.862 255.995 304.175 252.259C303.331 250.572 302.247 249.005 300.8 247.559C299.595 246.354 298.029 245.269 296.341 244.426C294.775 243.703 292.967 243.1 290.918 242.739C289.954 242.618 288.87 242.498 287.785 242.498C286.821 242.618 285.857 242.618 284.893 242.739Z" fill="#A8EEE4"/>
<path d="M284.892 242.738C282 243.1 279.228 243.944 276.577 245.269C275.251 245.992 273.926 246.715 272.6 247.679C272.962 247.559 273.444 247.438 273.805 247.438C275.251 247.197 276.818 246.956 278.264 246.956C278.385 246.956 278.505 246.956 278.746 246.956C280.072 246.956 281.277 247.077 282.603 247.318C283.567 247.559 284.651 247.92 285.615 248.282C286.579 248.644 287.423 249.005 288.267 249.608C288.99 249.969 289.592 250.451 290.195 251.054C291.279 252.018 292.364 253.223 292.967 254.669C293.208 255.151 293.449 255.633 293.569 256.115C293.69 256.597 293.81 257.079 293.931 257.682C294.051 258.767 294.172 259.851 294.051 260.936C293.931 263.346 293.328 265.756 292.485 268.167C291.52 270.697 290.315 273.228 288.99 275.638C287.544 278.049 285.977 280.459 284.169 282.749C282.482 284.918 280.795 287.087 278.867 289.015C277.3 290.703 275.613 292.269 273.926 293.715C272.841 294.559 271.756 295.403 270.672 296.126C268.744 297.451 266.936 298.777 265.008 299.982C261.272 302.392 257.295 304.682 253.318 306.731C245.485 310.708 237.41 313.841 228.974 316.251C220.659 318.661 212.103 320.349 203.546 321.554C198.244 322.277 192.941 322.759 187.638 323C201.136 322.759 214.513 321.554 227.528 319.385C237.651 317.697 247.051 315.287 255.728 312.274C266.092 308.779 274.649 304.562 282.241 299.5C286.338 296.728 289.954 293.715 293.208 290.341C296.462 286.967 299.233 283.231 301.282 279.254C303.451 275.156 304.897 270.697 305.62 265.997C306.344 260.695 305.862 256.115 304.174 252.379C303.331 250.692 302.246 249.126 300.8 247.679C299.595 246.474 298.028 245.39 296.22 244.546C294.654 243.823 292.846 243.22 290.797 242.859C289.833 242.738 288.749 242.618 287.664 242.618C286.82 242.497 285.977 242.618 284.892 242.738Z" fill="#A8EEE4"/>
</g>
<defs>
<clipPath id="clip0_205_26">
<rect width="18.1669" height="18.1669" fill="white" transform="translate(65.8679 55.6031)"/>
</clipPath>
<clipPath id="clip1_205_26">
<rect width="21.5702" height="21.5702" fill="white" transform="translate(28 25.4048)"/>
</clipPath>
<clipPath id="clip2_205_26">
<rect width="34.0331" height="34.0331" fill="white" transform="translate(51.967 -0.00012207)"/>
</clipPath>
<clipPath id="clip3_205_26">
<rect width="307.669" height="235" fill="white" transform="translate(0 88)"/>
</clipPath>
</defs>
</svg>
